<svg version="1.2" xmlns="http://www.w3.org/2000/svg" viewBox="0 0 1024 1024" width="1024" height="1024">
	<style>
		.s0 { fill: #fcf9f5 } 
		.s1 { fill: #2b2c2e } 
		.s2 { fill: #fbf8f4 } 
		.s3 { fill: #faf7f3 } 
		.s4 { fill: #292a2b } 
		.s5 { fill: #2e2f30 } 
		.s6 { fill: #272829 } 
		.s7 { fill: #2a2b2c } 
		.s8 { fill: #2a2a2c } 
		.s9 { fill: #28292a } 
		.s10 { fill: #2a2c2d } 
		.s11 { fill: #f8f6f3 } 
		.s12 { fill: #faf7f5 } 
		.s13 { fill: #262727 } 
		.s14 { fill: #272827 } 
		.s15 { fill: #252626 } 
		.s16 { fill: #2d2e2f } 
		.s17 { fill: #212222 } 
		.s18 { fill: #121212 } 
		.s19 { fill: #2b2d2e } 
		.s20 { fill: #1b1b1c } 
		.s21 { fill: #3a3a3b } 
		.s22 { fill: #171617 } 
		.s23 { fill: #343435 } 
		.s24 { fill: #2c2d2d } 
		.s25 { fill: #1e1e1d } 
		.s26 { fill: #353536 } 
		.s27 { fill: #fefefc } 
		.s28 { fill: #2e2e2e } 
		.s29 { fill: #303131 } 
		.s30 { fill: #262627 } 
		.s31 { fill: #302f2f } 
		.s32 { fill: #2e2f2f } 
		.s33 { fill: #131312 } 
		.s34 { fill: #303233 } 
		.s35 { fill: #3a3b3d } 
		.s36 { fill: #373738 } 
		.s37 { fill: #1f1f1f } 
		.s38 { fill: #2a2b2d } 
		.s39 { fill: #e5e5e3 } 
		.s40 { fill: #262729 } 
		.s41 { fill: #1d1d1f } 
		.s42 { fill: #f2f1ef } 
		.s43 { fill: #313234 } 
		.s44 { fill: #1b1c1d } 
		.s45 { fill: #343537 } 
		.s46 { fill: #e6e6e3 } 
		.s47 { fill: #f6f6f3 } 
		.s48 { fill: #f1f0ef } 
		.s49 { fill: #212121 } 
		.s50 { fill: #ededeb } 
		.s51 { fill: #2a2a2a } 
		.s52 { fill: #f0efed } 
		.s53 { fill: #1f2020 } 
		.s54 { fill: #111313 } 
		.s55 { fill: #333335 } 
		.s56 { fill: #ecebe9 } 
		.s57 { fill: #191919 } 
		.s58 { fill: #323335 } 
		.s59 { fill: #e4e4e2 } 
		.s60 { fill: #3a3a3a } 
		.s61 { fill: #1d1d1d } 
		.s62 { fill: #f1f0f0 } 
		.s63 { fill: #323130 } 
		.s64 { fill: #242526 } 
		.s65 { fill: #151515 } 
		.s66 { fill: #f3f3f0 } 
		.s67 { fill: #1a1b1a } 
		.s68 { fill: #ebeaea } 
		.s69 { fill: #1d1e1e } 
		.s70 { fill: #202121 } 
		.s71 { fill: #e8e8e6 } 
		.s72 { fill: #262628 } 
		.s73 { fill: #343536 } 
		.s74 { fill: #1e1d1e } 
		.s75 { fill: #f4f3f0 } 
		.s76 { fill: #323333 } 
		.s77 { fill: #dfdfde } 
		.s78 { fill: #e8e8e7 } 
		.s79 { fill: #363738 } 
		.s80 { fill: #323334 } 
		.s81 { fill: #262927 } 
		.s82 { fill: #333334 } 
		.s83 { fill: #3b3b3c } 
		.s84 { fill: #323233 } 
		.s85 { fill: #dcdcdb } 
		.s86 { fill: #383739 } 
		.s87 { fill: #3a393c } 
		.s88 { fill: #373838 } 
		.s89 { fill: #f0efec } 
		.s90 { fill: #eae7e4 } 
		.s91 { fill: #f2f2f1 } 
		.s92 { fill: #f5f5f4 } 
		.s93 { fill: #e1e0df } 
		.s94 { fill: #e6e5e3 } 
		.s95 { fill: #f3f1ee } 
		.s96 { fill: #eeeded } 
		.s97 { fill: #1f2022 } 
		.s98 { fill: #333435 } 
		.s99 { fill: #1d1c1c } 
		.s100 { fill: #333534 } 
		.s101 { fill: #eaeae8 } 
		.s102 { fill: #f1f0ee } 
		.s103 { fill: #ecebea } 
		.s104 { fill: #f1f0ec } 
		.s105 { fill: #e7e5e5 } 
		.s106 { fill: #ececea } 
		.s107 { fill: #242423 } 
		.s108 { fill: #1a1919 } 
		.s109 { fill: #252526 } 
		.s110 { fill: #ebeae8 } 
		.s111 { fill: #393838 } 
		.s112 { fill: #363534 } 
		.s113 { fill: #383836 } 
		.s114 { fill: #222324 } 
		.s115 { fill: #1f2021 } 
		.s116 { fill: #393939 } 
		.s117 { fill: #f0f0ed } 
		.s118 { fill: #efeeed } 
		.s119 { fill: #f2f2f0 } 
		.s120 { fill: #eeeeec } 
		.s121 { fill: #f0efee } 
		.s122 { fill: #e3e3e4 } 
		.s123 { fill: #20201f } 
		.s124 { fill: #eae9e5 } 
		.s125 { fill: #e3e3e2 } 
		.s126 { fill: #363637 } 
		.s127 { fill: #272729 } 
		.s128 { fill: #f3f3f1 } 
		.s129 { fill: #333434 } 
		.s130 { fill: #373636 } 
		.s131 { fill: #18181a } 
		.s132 { fill: #f3f0ee } 
		.s133 { fill: #f0edeb } 
		.s134 { fill: #373736 } 
		.s135 { fill: #242424 } 
		.s136 { fill: #3b3c3c } 
		.s137 { fill: #232323 } 
		.s138 { fill: #f1efed } 
		.s139 { fill: #363837 } 
		.s140 { fill: #333436 } 
		.s141 { fill: #ebebe9 } 
		.s142 { fill: #1b1a1b } 
		.s143 { fill: #373737 } 
		.s144 { fill: #202022 } 
		.s145 { fill: #363736 } 
		.s146 { fill: #343434 } 
		.s147 { fill: #eaeceb } 
		.s148 { fill: #e7e7e6 } 
		.s149 { fill: #f0f0ef } 
		.s150 { fill: #1e1f1f } 
		.s151 { fill: #1d1f1f } 
		.s152 { fill: #e1dfdd } 
		.s153 { fill: #222325 } 
		.s154 { fill: #33302f } 
		.s155 { fill: #333432 } 
		.s156 { fill: #e6e5e4 } 
		.s157 { fill: #f4f4f0 } 
		.s158 { fill: #212221 } 
		.s159 { fill: #1b1c1c } 
		.s160 { fill: #dbdad8 } 
		.s161 { fill: #242525 } 
		.s162 { fill: #1c1b19 } 
		.s163 { fill: #181919 } 
		.s164 { fill: #191918 } 
		.s165 { fill: #f1f1ed } 
		.s166 { fill: #ebece9 } 
		.s167 { fill: #e2e2e0 } 
		.s168 { fill: #343433 } 
		.s169 { fill: #f2efec } 
		.s170 { fill: #222222 } 
		.s171 { fill: #ebeae9 } 
		.s172 { fill: #efedee } 
		.s173 { fill: #363635 } 
		.s174 { fill: #e6e6e4 } 
		.s175 { fill: #242523 } 
		.s176 { fill: #e8e8e4 } 
		.s177 { fill: #1c1c1d } 
		.s178 { fill: #e9e9e8 } 
		.s179 { fill: #1c1d1f } 
		.s180 { fill: #dededb } 
		.s181 { fill: #1e1e1e } 
		.s182 { fill: #222121 } 
		.s183 { fill: #f4f4f1 } 
		.s184 { fill: #ececeb } 
		.s185 { fill: #242322 } 
		.s186 { fill: #e4e4e1 } 
		.s187 { fill: #211f1e } 
		.s188 { fill: #f1efec } 
		.s189 { fill: #eae8e8 } 
		.s190 { fill: #e0e0de } 
		.s191 { fill: #f2efed } 
		.s192 { fill: #171819 } 
		.s193 { fill: #ece9e6 } 
		.s194 { fill: #1d1e1f } 
		.s195 { fill: #e6e4e2 } 
		.s196 { fill: #e7e7e3 } 
		.s197 { fill: #353735 } 
		.s198 { fill: #e4e4e3 } 
		.s199 { fill: #e7e7e4 } 
		.s200 { fill: #eae9e7 } 
		.s201 { fill: #3c3c3c } 
		.s202 { fill: #444443 } 
		.s203 { fill: #3b3c3b } 
		.s204 { fill: #21211f } 
		.s205 { fill: #37383a } 
		.s206 { fill: #e7e5e3 } 
		.s207 { fill: #ebebe8 } 
		.s208 { fill: #3f3f41 } 
		.s209 { fill: #e0e0df } 
		.s210 { fill: #353637 } 
		.s211 { fill: #eeedec } 
		.s212 { fill: #1f1d1c } 
		.s213 { fill: #e3e1df } 
		.s214 { fill: #171818 } 
		.s215 { fill: #f2f0ed } 
		.s216 { fill: #e8e7e5 } 
		.s217 { fill: #363636 } 
		.s218 { fill: #1c1c1b } 
		.s219 { fill: #272929 } 
		.s220 { fill: #191a19 } 
		.s221 { fill: #e9e8e7 } 
		.s222 { fill: #36383a } 
		.s223 { fill: #222223 } 
		.s224 { fill: #20201e } 
		.s225 { fill: #dbd9d6 } 
		.s226 { fill: #e3e3e1 } 
		.s227 { fill: #222421 } 
		.s228 { fill: #edeeef } 
		.s229 { fill: #eaeae9 } 
		.s230 { fill: #ebeae7 } 
		.s231 { fill: #e9e8e6 } 
		.s232 { fill: #353537 } 
		.s233 { fill: #efefec } 
		.s234 { fill: #333433 } 
		.s235 { fill: #29292a } 
		.s236 { fill: #484847 } 
		.s237 { fill: #e7e6e4 } 
		.s238 { fill: #e5e6e6 } 
		.s239 { fill: #1f201f } 
		.s240 { fill: #3a3839 } 
		.s241 { fill: #edeeeb } 
		.s242 { fill: #e3e2e1 } 
		.s243 { fill: #2f2f2d } 
		.s244 { fill: #1a1a1a } 
		.s245 { fill: #e1e2de } 
		.s246 { fill: #dfdfdd } 
		.s247 { fill: #353638 } 
		.s248 { fill: #3e3d3c } 
		.s249 { fill: #e7e6e5 } 
		.s250 { fill: #232524 } 
		.s251 { fill: #dcdedb } 
	</style>
	<path class="s0" d="m0 0c337.92 0 675.84 0 1024 0 0 337.92 0 675.84 0 1024-337.92 0-675.84 0-1024 0 0-337.92 0-675.84 0-1024z"/>
	<path class="s1" d="m446.25 246.82q1.47-0.01 2.98-0.02 4.85-0.02 9.7-0.04 1.66 0 3.37-0.01 8.86-0.03 17.71-0.05 9.07-0.02 18.13-0.08 7.04-0.04 14.09-0.04 3.33-0.01 6.67-0.03c22.5-0.18 47.65 2.25 66.95 15.03 2.14 1.41 4.31 2.57 6.59 3.73 5.76 3.15 10.57 7.47 15.56 11.69q1.29 1.01 2.62 2.04c2.17 1.79 3.94 3.57 5.76 5.71 2.58 3.04 2.58 3.04 5.27 5.98 13.81 14.69 22.96 34.68 26.94 54.29q0.62 2.95 1.31 5.88c5.49 25.11 3.44 56.43-7.84 79.79q-0.78 1.63-1.58 3.3-0.73 1.48-1.48 3.01c-0.55 1.15-0.55 1.15-1.1 2.32-2.03 4.2-4.36 8.01-7.04 11.82-1.01 1.8-1.01 1.8-0.76 3.73 1.27 3.01 3.14 5.31 5.15 7.88 14.98 19.59 19.57 39.65 17.51 64.12-0.42 2.46-1.04 4.74-1.76 7.13q-0.27 0.95-0.54 1.93c-5.7 20.21-17.55 39.23-36.15 50.05-17.33 9.67-33.92 13.17-53.67 13.18q-2.33 0.01-4.66 0.02-6.3 0.01-12.61 0.02-3.94 0-7.89 0.01-12.39 0.02-24.78 0.03-14.24 0.01-28.48 0.05-11.04 0.03-22.09 0.03-6.58 0-13.16 0.03-6.2 0.02-12.4 0.01-2.25 0-4.51 0.01c-12.83 0.08-25.62-1.08-37.37-6.62-1-0.46-1-0.46-2.03-0.93-19.11-9.04-32.01-24.85-40.66-43.82q-0.43-0.92-0.87-1.88c-5.34-12.78-5.58-26.4-5.55-40.01q-0.01-2.77-0.03-5.54-0.03-7.47-0.02-14.93 0-6.27-0.02-12.54-0.02-14.81-0.01-29.63 0.01-15.19-0.05-30.39-0.05-13.12-0.04-26.23 0-7.81-0.03-15.61c-0.23-51.44-0.23-51.44 12.65-73.57q1.3-2.26 2.51-4.57c11.68-20.47 34.49-36.1 56.91-42.38 10.31-2.72 20.14-3.87 30.8-3.9z"/>
	<path class="s0" d="m455.87 271.64q3.49 0 6.97 0 7.29 0 14.58 0.02 9.3 0.03 18.59 0.02 7.2 0 14.4 0.01 3.42 0.01 6.85 0.01c15.33 0 30.11 0.11 44.74 5.3 1.18 0.4 1.18 0.4 2.38 0.8 24.99 9.11 43.46 29.58 54.54 53.14 12.58 27.94 12.47 59.91 1.83 88.39-2.41 6.16-5.29 12.03-8.75 17.67-3.19-1.41-5.33-3.08-7.79-5.55q-1.1-1.1-2.24-2.23c-1.2-1.21-1.2-1.21-2.42-2.45q-1.27-1.27-2.58-2.57-3.5-3.5-6.98-7.01-3.66-3.67-7.32-7.33-6.94-6.95-13.87-13.91-7.86-7.9-15.73-15.78-13.46-13.49-26.91-26.99c-23-23.55-23-23.55-54.16-31.68-14.76 0.2-27.22 6.32-37.9 16.24-15.11 16.24-15.4 37.17-15.42 58.03q-0.01 2.92-0.03 5.85-0.04 7.89-0.05 15.78-0.03 8.27-0.07 16.54-0.07 15.63-0.12 31.25-0.06 17.81-0.14 35.61-0.15 36.6-0.27 73.2-2.39-0.21-4.77-0.44-1.33-0.12-2.69-0.24c-13.48-1.69-23.85-11.18-31.98-21.38q-1.33-1.94-2.56-3.94-0.67-1.08-1.36-2.19c-7.1-12.7-7.08-27.11-7.03-41.24q0-2.7-0.01-5.4-0.02-7.26 0-14.52 0-7.64-0.01-15.29 0-12.82 0.02-25.65 0.02-14.78-0.01-29.55-0.02-12.75 0-25.49 0-7.59-0.01-15.18-0.01-7.13 0.02-14.27 0-2.6-0.01-5.2c-0.08-23.95 4.83-42.73 21.59-60.71 8.62-8.27 19.46-14.63 30.81-18.31q1.04-0.37 2.11-0.75c11-3.36 22.37-2.66 33.76-2.61z"/>
	<path class="s2" d="m485.38 346.44c9.75 4.86 17.44 14.23 25.05 21.85q1.44 1.44 2.88 2.88 2.98 2.99 5.97 5.98 3.8 3.81 7.62 7.61 2.96 2.96 5.92 5.93 2.08 2.08 4.16 4.15c4.23 4.25 8.23 8.52 12.02 13.16q2.47 2.53 5 5 2.26 2.26 4.51 4.51 1.29 1.29 2.61 2.61 17.94 17.94 35.88 35.88c-3.59 4.28-7.26 8.38-11.22 12.32q-0.7 0.7-1.42 1.41-2.21 2.2-4.42 4.39-1.49 1.48-2.97 2.96-2.74 2.73-5.48 5.44-1.23 1.22-2.49 2.48c-1.32 1.3-1.32 1.3-2.67 2.63-2.43 2.4-2.43 2.4-4.77 5.37-2.56 3-2.56 3-5.5 5.44-2.37 1.98-4.12 3.71-6.06 6.06-1.9 2.3-3.61 4-5.94 5.94-2.41 2.01-4.22 3.81-6.22 6.18-3.93 4.54-8.09 8.79-12.33 13.04q-1.17 1.17-2.38 2.38-2.46 2.48-4.93 4.94-3.79 3.8-7.57 7.61-2.4 2.41-4.81 4.82-1.12 1.13-2.28 2.31-1.05 1.03-2.12 2.1-0.92 0.92-1.86 1.87c-1.56 1.31-1.56 1.31-3.56 1.31q0 0.98 0 2c-14.13 10.54-29.68 16.06-47.25 16.02q-1.89-0.01-3.83-0.01-1.44-0.01-2.92-0.01-0.07-38.63-0.1-77.27-0.02-17.94-0.05-35.88-0.03-15.64-0.04-31.28 0-8.28-0.02-16.55-0.02-7.8-0.02-15.6 0-2.86-0.01-5.71c-0.11-29.51-0.11-29.51 9.1-39.78 9.45-8.74 22.35-10.69 34.52-6.49z"/>
	<path class="s3" d="m614 473c12.33 13.44 15.9 28.74 15.18 46.62-1.24 16.4-9.11 31.64-21.52 42.42-14.61 10.79-28.99 13.29-46.73 13.16q-2.13-0.01-4.26-0.01-5.55-0.02-11.09-0.05-5.69-0.03-11.37-0.04-11.1-0.04-22.21-0.1c4.84-5.88 10.13-11.24 15.53-16.6q2.4-2.38 4.79-4.77 5.95-5.93 11.9-11.84 5.05-5.02 10.09-10.04 2.34-2.34 4.69-4.67c4.89-4.86 9.59-9.77 14-15.08 2.38-2.5 4.7-4.77 7.44-6.87 2.67-2.22 4.75-4.57 6.93-7.25 1.61-1.86 3.3-3.59 5.05-5.31q2.98-2.98 5.94-6 2.41-2.44 4.83-4.88 1.22-1.25 2.48-2.54 1.17-1.17 2.37-2.39 1.07-1.08 2.16-2.19c1.8-1.57 1.8-1.57 3.8-1.57z"/>
	<path class="s4" d="m267.88 650.9c24.08-0.53 45.54 3.15 63.87 20.16 11.22 11.72 15.78 26.79 15.67 42.77-0.59 16.6-6.9 31.23-18.42 43.17-16.07 13.59-34.68 17.18-55.13 17.1q-2.03-0.01-4.06-0.01-5.32 0-10.64-0.02-5.44-0.02-10.88-0.02-10.64-0.02-21.29-0.05 0-2.46 0-5c1.64-0.4 1.64-0.4 3.31-0.81 4.04-1.24 4.04-1.24 6.69-4.19 1.28-4.24 1.16-8.47 1.18-12.86q0.01-1.34 0.02-2.72 0.02-4.43 0.04-8.87 0-1.51 0.01-3.07 0.03-8.04 0.05-16.08 0.02-8.28 0.08-16.57 0.04-6.39 0.04-12.77 0.01-3.06 0.03-6.11 0.04-4.29 0.02-8.57c0.02-1.25 0.02-1.25 0.04-2.53-0.05-5.58-1.08-10.32-4.51-14.85-2.33-1.49-4.32-2.18-7-3q0-1.97 0-4 17.36-0.53 34.72-0.95 3.08-0.07 6.16-0.15zm-8.88 6.1c0 36.63 0 73.26 0 111 15.73 3.15 33.26 1.22 47.16-6.99 11.71-8.29 17-20.98 19.51-34.72 2.6-18.04-0.36-36.07-10.67-51.29-8.71-11.17-19.31-15.51-33-18-7.59 0-15.18 0-23 0z"/>
	<path class="s5" d="m613 651c12.21 0 24.42 0 37 0q0 1.97 0 4c-0.8 0.35-0.8 0.35-1.61 0.7-4.55 2.1-7.93 3.76-10.39 8.3-3.09 11.22-2.35 23.3-2.41 34.83q-0.03 3.3-0.06 6.61-0.08 8.64-0.13 17.28-0.06 8.84-0.14 17.67-0.15 17.31-0.26 34.61c-5.72 0.22-5.72 0.22-8.2-1.73q-1.01-1.21-2.05-2.46c-1.16-1.38-1.16-1.38-2.34-2.78q-4.26-5.35-8.4-10.79c-3.39-4.47-6.9-8.83-10.45-13.18q-7.63-9.36-15.06-18.88-3.35-4.27-6.75-8.49-4.44-5.55-8.79-11.16-5.51-7.08-11.07-14.12-3.8-4.83-7.59-9.67c-0.77-0.97-0.77-0.97-1.55-1.96q-1.87-2.39-3.75-4.78-0.11 14.77-0.16 29.55-0.02 6.86-0.07 13.72-0.04 6.64-0.05 13.27-0.01 2.52-0.04 5.04c-0.63 15.47-0.63 15.47 5.57 28.98 3.24 1.7 6.19 2.6 9.75 3.44q0 2.46 0 5c-11.88 0-23.76 0-36 0q0-1.97 0-4 0.79-0.33 1.61-0.66c5.03-2.26 7.84-4.23 10.39-9.34 1.06-4.83 1.19-9.62 1.26-14.54q0.02-1.25 0.04-2.54 0.18-11.51 0.25-23.03 0.05-7.72 0.18-15.45 0.14-7.48 0.16-14.97 0.02-2.85 0.09-5.7c0.57-10.33 0.57-10.33-2.94-19.7-3.72-3.38-7.82-5.95-12.6-7.57q-1.27-0.45-2.57-0.91-0.92-0.29-1.87-0.59 0-1.48 0-3 7.04-0.33 14.09-0.49 2.39-0.07 4.78-0.19c13.18-0.63 13.18-0.63 17.83 2.49 2.05 2.29 3.68 4.59 5.3 7.19q1.34 1.71 2.73 3.38 1.23 1.59 2.46 3.18 6.06 7.8 12.31 15.44 6.76 8.28 13.34 16.71c4.03 5.16 8.17 10.23 12.31 15.31q6.16 7.58 12.16 15.29 3.1 4 6.34 7.88 1.16 1.39 2.35 2.81 0.11-14.1 0.16-28.19 0.02-6.55 0.07-13.09 0.04-6.32 0.05-12.65 0.01-2.4 0.04-4.81 0.03-3.38 0.02-6.76 0.01-1.92 0.02-3.89c-0.54-5.45-1.87-9.35-6.17-12.99-3.17-1.61-5.67-2.28-9.19-2.62q0-2.46 0-5z"/>
	<path class="s6" d="m716.51 692.54c8.09 5.84 12.04 12.91 14.49 22.46 0 3.3 0 6.6 0 10-19.47 0-38.94 0-59 0 3.37 20.01 3.37 20.01 16 34 8.44 4.44 16.77 5.43 25.99 2.83 5.54-2.29 10.26-6.25 15.01-9.83q0.49 1.48 1 3c-1.62 2.81-1.62 2.81-4 6q-1.08 1.48-2.19 3c-6.51 7.56-15.37 11.46-25.17 12.28-11.6 0.31-20.9-1.39-29.64-9.28q-0.94-0.82-1.91-1.66c-8.46-7.85-11.21-17.82-12.38-29.13-0.45-13.88 3.49-27.24 12.98-37.52 13.61-12.71 32.69-16.07 48.82-6.15z"/>
	<path class="s7" d="m406 687c1.48 0.15 1.48 0.15 3 0.3 9.23 1.57 15.11 6.8 21 13.7 5.51 8.02 5 13.83 5 24-19.47 0-38.94 0-59 0 3.5 18.96 3.5 18.96 15.25 33.57 7.76 4.46 15.37 5.78 24.26 3.9 6.61-2.06 11.76-5.37 16.49-10.47 1.49 0.5 1.49 0.5 3 1-2.68 9.53-11.97 16.08-20.13 20.81-9.17 3.79-21.29 3.51-30.57 0.22-9.24-4.13-16.39-10.69-20.65-19.98-4.86-13.08-5.86-27.82-1.04-41.12 5.35-11.3 13.28-18.97 24.7-23.87 6.42-2.26 11.95-2.82 18.69-2.06z"/>
	<path class="s8" d="m765 668q1.48 0 3 0c0 7.26 0 14.52 0 22 8.58 0 17.16 0 26 0q0 2.96 0 6c-8.58 0-17.16 0-26 0q0.32 11.59 0.68 23.19 0.16 5.4 0.31 10.8 0.15 5.2 0.32 10.4 0.08 2.95 0.16 5.9 0.06 1.79 0.12 3.63c0.05 1.59 0.05 1.59 0.09 3.2 0.44 3.93 1.29 6.84 4.11 9.67 4.12 2.25 8.65 1.75 13.21 1.21 2.85-1.44 2.85-1.44 5-3 2.31 0.31 2.31 0.31 4 1-1.33 5.66-5.37 8.02-10 11-6.78 4.15-14.24 3.74-22 3-5.52-1.46-8.27-5.28-11.05-10-1.95-4.11-2.07-7.81-2.06-12.33q0-1.91 0-3.88 0-2.09 0.01-4.18 0.01-2.14 0.01-4.29 0-5.63 0.02-11.26 0.02-5.75 0.02-11.51 0.02-11.27 0.05-22.55c-4.95 0-9.9 0-15 0q0-1.48 0-3 0.9-0.28 1.84-0.56c11.66-4.04 19-12.63 25.63-22.67q0.75-0.87 1.53-1.77z"/>
	<path class="s9" d="m434 690c13.86 0 27.72 0 42 0q0 1.48 0 3c-2.97 1.32-5.94 2.64-9 4-0.65 7.5 1.6 13.02 4.5 19.88q0.67 1.63 1.36 3.32c3.08 7.45 6.29 14.84 9.71 22.14 1.8 3.89 2.95 7.4 3.43 11.66q0.99 0 2 0 0.21-0.81 0.43-1.64c2.32-8.3 5.69-16.13 9.07-24.05q0.88-2.08 1.76-4.16c4.04-9.54 4.04-9.54 5.58-13.07 2.14-4.91 2.87-7.77 2.16-13.08-3.02-2.68-6.05-3.44-10-4q0-1.97 0-4c9.9 0 19.8 0 30 0q0 1.97 0 4-1.54 0.46-3.13 0.94c-8.02 3.46-11.39 13.88-14.56 21.44-0.63 1.47-0.63 1.47-1.27 2.98-7.96 18.76-15.5 37.7-23.04 56.64q-2.95 0-6 0-4.92-10.73-9.63-21.56-0.63-1.46-1.28-2.95-4.25-9.81-8.36-19.68c-6.86-20.29-6.86-20.29-19.87-35.95q-1.04-0.33-2.11-0.67c-1.86-0.59-1.86-0.59-3.75-1.19q0-1.97 0-4z"/>
	<path class="s10" d="m659 712c2.13 2.13 2.53 3.1 3 6q-0.49 0.49-1 1-0.06 3.5 0 7 0.99 0 2 0 0 0.99 0 2 0.99 0 2 0 0.49 0.99 1 2 0.49-1.48 1-3 0.49-1.48 1-3 1.97 0.49 4 1 0.33 1.87 0.66 3.8c2.04 11.01 4.15 19.77 12.09 28.07 8.81 5.77 16.97 7.47 27.31 5.5 6.44-1.81 11.68-6.4 16.94-10.37q0.49 1.48 1 3c-1.63 2.81-1.63 2.81-4 6q-1.08 1.48-2.19 3c-6.51 7.56-15.37 11.46-25.17 12.28-11.6 0.31-20.9-1.39-29.64-9.28q-0.94-0.82-1.91-1.66c-8.46-7.85-11.21-17.82-12.38-29.13-0.25-7.83 0.76-17.15 4.29-24.21z"/>
	<path class="s11" d="m705 695c4.74 4.31 7.73 8.77 8.14 15.3 0.11 6.19 0.11 6.19-1.14 8.7-5.29 0.92-10.41 1.12-15.78 1.1q-1.04 0-2.12-0.01-3.3-0.01-6.6-0.03-2.26-0.01-4.52-0.01-5.49-0.02-10.98-0.05 0.44-2.62 0.89-5.23 0.25-1.45 0.51-2.95c1.62-7.58 5.66-12.95 11.6-17.82 6.48-3.82 13.75-2.59 20 1z"/>
	<path class="s12" d="m406.69 693.56c4.68 2.27 6.71 4.98 9.31 9.44 1.14 3.42 1.1 6.09 1.06 9.69q-0.01 1.76-0.02 3.57-0.02 1.35-0.04 2.74c-13.68 0.73-27.3 1.14-41 1 1.49-10.66 3.63-17.53 12-24.55 6.07-4.39 11.8-4.56 18.69-1.89z"/>
	<path class="s13" d="m522 652c10.89 0 21.78 0 33 0q0 0.49 0 1c-1.05 0.06-1.05 0.06-2.12 0.11-1.36 0.1-1.36 0.1-2.75 0.2-1.36 0.09-1.36 0.09-2.75 0.18-2.74 0.3-2.74 0.3-4.38 3.51q0-0.99 0-2-2.46 0-5 0-0.49 2.46-1 5 1.45 1.17 2.94 2.38c1.9 1.53 2.96 2.41 4.06 4.62q0.14 4.11 0.11 8.21 0 1.27 0 2.58 0 4.22-0.01 8.44-0.01 2.92-0.01 5.84 0 7.7-0.02 15.4-0.02 7.85-0.02 15.7-0.02 15.42-0.05 30.83c0.66-3.3 1.32-6.6 2-10q0.99 0 2 0 0.27 1.64 0.55 3.32 0.38 2.19 0.76 4.37 0.18 1.07 0.36 2.18c0.76 4.27 1.66 7.59 4.33 11.13 3.23 1.93 6.3 3.29 10 4q0 2.46 0 5c-11.88 0-23.76 0-36 0q0-1.97 0-4 0.79-0.33 1.61-0.66c5.03-2.26 7.84-4.23 10.39-9.34 1.06-4.83 1.19-9.62 1.26-14.54q0.02-1.25 0.04-2.54 0.18-11.51 0.25-23.03 0.05-7.72 0.18-15.45 0.14-7.48 0.16-14.97 0.02-2.85 0.09-5.7c0.57-10.33 0.57-10.33-2.94-19.7-3.72-3.38-7.82-5.95-12.6-7.57q-1.27-0.45-2.57-0.91-0.92-0.29-1.87-0.59 0-1.48 0-3z"/>
	<path class="s14" d="m497 690c9.9 0 19.8 0 30 0q0 1.97 0 4-1.54 0.46-3.13 0.94c-8.02 3.46-11.39 13.88-14.56 21.43q-0.62 1.47-1.27 2.98-2.04 4.82-4.04 9.65c-0.71 1.7-0.71 1.7-1.43 3.44-5.42 13.1-10.73 26.23-15.57 39.56q-0.99 0-2 0c-0.12-6.75-0.12-6.75 1-9q-1.48 0-3 0 0-0.99 0-2c1.49-0.99 1.49-0.99 3-2q-1.02-0.83-2.06-1.69c-0.96-1.14-0.96-1.14-1.94-2.31 0.25-2.75 0.25-2.75 1-5q0.99 0 2 0 0.49 1.97 1 4 0.99 0 2 0 0.21-0.81 0.43-1.64c2.32-8.3 5.69-16.13 9.07-24.05q0.88-2.08 1.76-4.16c4.04-9.54 4.04-9.54 5.58-13.07 2.14-4.91 2.87-7.77 2.16-13.08-3.02-2.68-6.05-3.44-10-4q0-1.97 0-4zm-17 66q0.99 0 2 0 0 0.99 0 2 0.99 0.49 2 1-1.97-0.49-4-1 0-0.99 0-2z"/>
	<path class="s15" d="m613 651c12.21 0 24.42 0 37 0q0 1.97 0 4-0.79 0.34-1.61 0.7c-4.55 2.1-7.93 3.76-10.39 8.3-3.09 11.22-2.35 23.3-2.41 34.83q-0.03 3.3-0.06 6.61-0.08 8.64-0.13 17.28-0.06 8.84-0.14 17.67-0.15 17.31-0.26 34.61c-5.77 0.19-5.77 0.19-7.87-1.5q-0.56-0.74-1.13-1.5 0.49-1.48 1-3 0.99 1.48 2 3 2.46 0.49 5 1c-0.33-31.35-0.66-62.7-1-95q-0.49 0-1 0c-0.33 19.14-0.66 38.28-1 58q-0.49 0-1 0c-0.01-1.07-0.01-1.07-0.02-2.15q-0.12-10.13-0.27-20.25-0.07-5.21-0.13-10.41-0.07-6.01-0.17-12.01-0.01-1.83-0.03-3.71c0.48-14.24 0.48-14.24-4.82-26.66-4.03-2.85-6.65-4.16-11.56-4.81q0-2.46 0-5z"/>
	<path class="s16" d="m417.94 690.74c7.87 4.81 14.61 12.2 17.06 21.26-0.37 2.44-0.37 2.44-1 5q0 1.6 0 3.25 0 1.35 0 2.75c-1 1-1 1-3.28 1.12q-1.51 0-3.07-0.01-1.7 0-3.45 0-1.86 0-3.77-0.01c-1.89 0-1.89 0-3.83-0.01q-5.04 0-10.09-0.02-5.15-0.02-10.3-0.02-10.1-0.02-20.21-0.05 0-0.99 0-2c5.31-0.75 10.4-1.12 15.78-1.1q1.04 0 2.12 0.01 3.3 0.01 6.6 0.03 2.26 0.01 4.52 0.01 5.49 0.02 10.98 0.05-0.03-1.69-0.07-3.43-0.03-2.22-0.05-4.45-0.03-1.11-0.06-2.26c-0.01-1.95 0.08-3.91 0.18-5.86q0.99-0.99 2-2c-0.32-2.11-0.32-2.11-1-4q0.99 0 2 0c-0.49-1.49-0.49-1.49-1-3q-0.99-0.49-2-1-0.49 0.49-1 1-1.48 0-3 0 0.49-2.46 1-5c3-1 3-1 4.94-0.26z"/>
	<path class="s17" d="m722 700c3.03 1.04 3.91 1.83 5.48 4.69q0.63 1.63 1.27 3.31 0.64 1.6 1.3 3.25c0.95 3.75 0.95 3.75 0.95 13.75-19.47 0-38.94 0-59 0q0-0.49 0-1 8.08-0.22 16.16-0.43 2.73-0.07 5.47-0.14c11.79-0.32 23.57-0.5 35.37-0.43-1.03-1.25-1.03-1.25-3.25-1.12q-1.48 0-3 0.01c-1.69 0-1.69 0-3.4 0q-1.82 0-3.7 0.01c-1.86 0-1.86 0-3.76 0.01q-4.96 0-9.92 0.02-5.06 0.02-10.11 0.02-9.93 0.02-19.86 0.05c4.05-2.25 7.71-2.35 12.27-2.41 1.19-0.03 1.19-0.03 2.4-0.06q3.79-0.09 7.58-0.16 2.57-0.05 5.15-0.11 6.3-0.14 12.6-0.26 0.06-1.24 0.11-2.52 0.1-1.62 0.2-3.29c0.09-1.62 0.09-1.62 0.18-3.27 0.54-3.1 0.97-4.13 3.51-5.92q0.99 0 2 0c2.17-0.83 2.17-0.83 3-3 0.5 1.49 0.5 1.49 1 3q0-1.97 0-4z"/>
	<path class="s18" d="m345 331q0.49 0 1 0c0 65.01 0 130.02 0 197q2.46-0.49 5-1c-0.45 4.67-1.02 7.39-4 11-3.18-10.77-3.42-20.83-3.36-31.96q0-2.82 0-5.64-0.01-7.59 0.02-15.19 0.02-7.96 0.02-15.92 0-13.36 0.04-26.71 0.04-17.15 0.04-34.3 0.01-14.75 0.03-29.5 0.01-4.75 0.01-9.49 0.01-7.43 0.03-14.87 0.01-2.73 0.01-5.46 0-3.72 0.02-7.44 0-1.08 0-2.19c0.01-3.06 0.17-5.41 1.14-8.33z"/>
	<path class="s19" d="m432 752q1.48 0.49 3 1c-2.71 9.63-12.13 16.2-20.38 20.94q-1.29 0.52-2.62 1.06-0.99-0.49-2-1-2.14-0.08-4.28-0.03-1.26 0.02-2.55 0.04-2.67 0.05-5.34 0.12-1.25 0.01-2.55 0.03-1.15 0.03-2.34 0.05c-1.94-0.21-1.94-0.21-3.94-2.21q1.11-0.31 2.25-0.63c3.02-1.18 3.02-1.18 4.44-4.43 2.31-2.94 2.31-2.94 5.98-3.53q2.04 0.06 4.08 0.21 1.04 0.05 2.11 0.09 2.57 0.11 5.14 0.29 0-0.49 0-1 0.87-0.25 1.76-0.52c6.98-2.16 12.2-5.06 17.24-10.48z"/>
	<path class="s20" d="m522 652c10.89 0 21.78 0 33 0q0 0.49 0 1c-1.05 0.06-1.05 0.06-2.12 0.11-1.36 0.1-1.36 0.1-2.75 0.2-1.36 0.09-1.36 0.09-2.75 0.18-2.74 0.3-2.74 0.3-4.38 3.51q0-0.99 0-2-2.46 0-5 0-0.49 2.46-1 5 1.45 1.17 2.94 2.38c1.9 1.53 2.96 2.41 4.06 4.62q0.15 4.03 0.15 8.06 0 1.24 0.01 2.52 0.01 4.14 0.01 8.29 0 2.87 0.01 5.74 0.01 6.03 0.01 12.06 0 7.74 0.03 15.47 0.01 5.93 0.01 11.87 0 2.85 0.01 5.7 0.01 3.99 0 7.97 0.01 1.18 0.02 2.39c-0.02 3.79-0.12 6.72-2.26 9.93q0.01-1.66 0.02-3.36 0.1-15.72 0.06-31.43-0.03-8.08 0.03-16.15 0.05-7.8 0-15.6-0.01-2.98 0.03-5.95c0.49-10.74 0.49-10.74-3.11-20.49-2.26-2.06-4.34-3.58-7.03-5.02q-1.51-0.82-3.07-1.66-1.23-0.41-2.49-0.84-1.27-0.45-2.57-0.91-0.92-0.29-1.87-0.59 0-1.48 0-3z"/>
	<path class="s18" d="m635 656q1.48 0 3 0-0.22 2.75-0.44 5.5-0.12 1.52-0.24 3.09-0.33 3.51-0.83 7c-0.6 4.8-0.66 9.57-0.7 14.41-0.01 1.45-0.01 1.45-0.03 2.93q-0.04 4.75-0.08 9.51-0.03 3.31-0.06 6.62-0.08 8.69-0.15 17.38-0.08 8.88-0.16 17.76-0.16 17.4-0.31 34.8c-5.77 0.19-5.77 0.19-7.88-1.5q-0.55-0.74-1.12-1.5 0.49-1.48 1-3 0.99 1.48 2 3 2.46 0.49 5 1c-0.33-31.35-0.66-62.7-1-95q-0.49 0-1 0c-0.33 19.14-0.66 38.28-1 58q-0.49 0-1 0-0.02-1.07-0.03-2.17-0.15-10.17-0.31-20.34-0.08-5.23-0.16-10.45-0.09-6.03-0.18-12.06-0.03-1.84-0.05-3.74c-0.11-6.39-0.41-12.68-1.16-19.03-0.11-2.21-0.11-2.21 0.89-5.21q1.97 0 4 0 1.48-0.49 3-1c0.73-2.02 0.73-2.02 1-4q-0.99 0-2 0 0-0.99 0-2z"/>
	<path class="s21" d="m258 657q0.49 0 1 0c0 36.63 0 73.26 0 111q1.48 0.49 3 1-2.95-0.49-6-1-0.07-21.27-0.1-42.53-0.02-9.88-0.05-19.75-0.03-9.52-0.04-19.04-0.01-3.64-0.02-7.28-0.02-5.08-0.02-10.17-0.01-1.51-0.02-3.06 0.01-1.38 0.01-2.79 0-1.2-0.01-2.43c0.25-1.95 0.25-1.95 2.25-3.95z"/>
	<path class="s22" d="m433 714c2 2 2 2 2 11-19.47 0-38.94 0-59 0q0 2.96 0 6-0.49-1.97-1-4-1.97-0.49-4-1 0.99-2.96 2-6 0.99 0 2 0 0.49-1.97 1-4 0 1.97 0 4 1.68-0.11 3.42-0.22c12.2-0.73 24.35-0.89 36.58-0.78q0 0.99 0 2c-13.2 0.33-26.4 0.66-40 1q0 0.99 0 2c28.21-0.5 28.21-0.5 57-1 0-2.97 0-5.94 0-9z"/>
	<path class="s23" d="m308 762q-0.49 0.99-1 2c0.5 0.5 0.5 0.5 1 1q-0.49 1.48-1 3c-2.36 1.13-2.36 1.13-5.31 2.13q-1.44 0.49-2.93 1-1.36 0.43-2.76 0.87c-0.88 0.28-0.88 0.28-1.78 0.56-2.9 0.57-5.56 0.44-8.52 0.32q-1.8-0.07-3.65-0.15c-1.88-0.08-1.88-0.08-3.8-0.17q-1.89-0.08-3.85-0.16-4.7-0.19-9.4-0.4-0.49-0.99-1-2c7.92-0.5 7.92-0.5 16-1q0-0.49 0-1 1.62-0.27 3.29-0.55 2.17-0.38 4.33-0.76c1.07-0.18 1.07-0.18 2.17-0.36 6.49-1.16 11.54-4.81 18.21-4.33z"/>
	<path class="s24" d="m701 691q3.52 0.93 7 2 1.57 0 3.19 0c3 0 4.27 0.48 6.81 2q1.05 0.46 2.13 0.94c1.87 1.06 1.87 1.06 3.87 4.06q0 1.97 0 4-1.5 0-3 0c-2.59 0.53-2.59 0.53-5 2-0.9 3.05-0.9 3.05-1 6-2.19-2.51-3.34-4.82-4.38-7.94-1.44-4-3.23-6.38-6.62-9.06-3.17-1.34-3.17-1.34-6-2q1.48-0.99 3-2z"/>
	<path class="s25" d="m794.19 761.38q0.89 0.3 1.81 0.62c-1.33 5.66-5.37 8.02-10 11-6.64 4.06-14.42 3.86-22 3-2.96-1.52-2.96-1.52-5-3 2-1 2-1 5.12-0.06 1.43 0.52 1.43 0.52 2.88 1.06q0.49-1.97 1-4 2.41-0.08 4.81-0.12 1.34-0.04 2.71-0.08c2.48 0.2 2.48 0.2 5.48 2.2q-1.48 0-3 0 0 0.99 0 2c2.64-1.32 5.28-2.64 8-4q-0.49-0.99-1-2c-3.03-0.66-3.03-0.66-6-1q0-0.49 0-1 1.03-0.29 2.08-0.59 1.35-0.38 2.73-0.78 1.34-0.39 2.71-0.78c7.36-2.53 7.36-2.53 7.67-2.47z"/>
	<path class="s26" d="m728 716q0.49 0 1 0c0 2.31 0 4.62 0 7-12.85 0.86-25.69 1.28-38.56 1.56q-2.85 0.07-5.7 0.13-6.87 0.16-13.74 0.31-0.49-1.48-1-3 0.49-0.99 1-2c4.56-0.13 4.56-0.13 6.75 0.5 3.06 0.68 5.94 0.59 9.08 0.56q2.04-0.01 4.09-0.02 1.06-0.01 2.15-0.02c11.67-0.1 23.29-0.09 34.93 0.98q0-2.96 0-6z"/>
	<path class="s27" d="m259 658q1.48 0.49 3 1 2 0.21 4.01 0.32c1.14 0.06 1.14 0.06 2.3 0.12 1.18 0.06 1.18 0.06 2.38 0.12 1.19 0.07 1.19 0.07 2.41 0.13q2.95 0.16 5.9 0.31 0 0.49 0 1c-5.94 0-11.88 0-18 0 0 19.47 0 38.94 0 59-0.99 0.5-0.99 0.5-2 1 0-20.79 0-41.58 0-63z"/>
	<path class="s28" d="m269.57 650.73c1.59 0 1.59 0 3.22 0q1.64 0.01 3.34 0.02 1.65-0.01 3.36-0.02 1.58 0 3.21 0 1.44 0.01 2.93 0.01c2.37 0.26 2.37 0.26 4.37 2.26q0 1.48 0 3 1.97 0.49 4 1 0-0.99 0-2-1.48-0.49-3-1c2.97 0.33 5.94 0.66 9 1-1.98 0.99-1.98 0.99-4 2 0.5 0.99 0.5 0.99 1 2q-2.63-0.21-5.25-0.44-1.45-0.12-2.95-0.24c-3.22-0.37-5.9-0.87-8.8-2.32q-2.72-0.22-5.45-0.32-1.6-0.06-3.26-0.12c-1.69-0.06-1.69-0.06-3.41-0.12q-1.7-0.07-3.45-0.13-4.21-0.16-8.43-0.31 2-1 4-2 0.94-0.55 1.9-1.11c2.66-1.13 4.78-1.15 7.67-1.16z"/>
	<path class="s29" d="m679.25 694.13q0.86 0.43 1.75 0.87 0.49 1.48 1 3-1.14 0.55-2.32 1.11c-3.34 2.35-4.07 4.3-5.49 8.08q-0.63 1.62-1.27 3.29-0.45 1.24-0.92 2.52c-1.94-0.81-1.94-0.81-4-2q-0.49-1.48-1-3c-0.99 1.49-0.99 1.49-2 3q-1.48 0.49-3 1 0.46-1.08 0.94-2.19c0.99-2.61 1.59-5.06 2.06-7.81q1.48 0 3 0 2.02-2.49 4-5c4.07-3.05 4.07-3.05 7.25-2.87z"/>
	<path class="s30" d="m495 746c1.18 3.55 0.78 4.21-0.62 7.56q-0.53 1.31-1.09 2.67-0.57 1.36-1.17 2.77-1.12 2.72-2.24 5.44-0.5 1.2-1.02 2.43-1.01 2.54-1.86 5.13-0.99 0-2 0c-0.12-6.75-0.12-6.75 1-9q-1.48 0-3 0 0-0.99 0-2 1.48-0.99 3-2-1.02-0.83-2.06-1.69-0.96-1.14-1.94-2.31c0.25-2.75 0.25-2.75 1-5q0.99 0 2 0 0.49 1.97 1 4 0.99 0 2 0 0.99-2.96 2-6 0.49 0 1 0c0 2.31 0 4.62 0 7q0.31-0.84 0.62-1.71 0.4-1.1 0.82-2.23 0.4-1.09 0.81-2.21c0.75-1.85 0.75-1.85 1.75-2.85zm-15 10q0.99 0 2 0 0 0.99 0 2 0.99 0.49 2 1-1.97-0.49-4-1 0-0.99 0-2z"/>
	<path class="s31" d="m728 752q0.99 0.49 2 1c-1.31 5.82-4.57 10.11-9 14q-1.48 0-3 0-2.54 1.44-5 3-1.99 1.03-4 2-0.99-0.99-2-2 0.99-0.99 2-2c-0.32-2.6-0.32-2.6-1-5 1.7-0.31 1.7-0.31 3.44-0.63 6.48-1.6 12-5.55 16.56-10.37z"/>
	<path class="s32" d="m392 691q0 1.48 0 3c-2.61 1.96-5.06 3.64-8.13 4.81-3.08 1.96-4.21 4.98-5.87 8.19q-0.49-1.48-1-3-0.99 0-2 0-0.49 0.99-1 2-0.49-0.99-1-2-0.99-0.49-2-1c0-3 0-3 1.57-4.79 1.05-0.91 1.05-0.91 2.12-1.83q1.02-0.92 2.07-1.86c2.48-1.69 4.29-2.09 7.24-2.52 2.93-0.98 4.96-1.08 8-1z"/>
	<path class="s33" d="m227 771c21.45 0.33 42.9 0.66 65 1-4.07 2.03-5.66 2.25-10.05 2.23q-1.83 0-3.7 0-1.96-0.02-3.98-0.03-2.05-0.01-4.09-0.01-5.37-0.02-10.73-0.05-5.48-0.03-10.96-0.04-10.75-0.04-21.49-0.1 0-1.48 0-3z"/>
	<path class="s34" d="m424 763c-4.83 3-8.96 3.44-14.61 3.69-2.57 0.09-2.57 0.09-4.39 2.31 0.32 2.11 0.32 2.11 1 4-3.25 0.96-6.24 1.16-9.63 1.19-1.44 0.02-1.44 0.02-2.91 0.04-2.46-0.23-2.46-0.23-4.46-2.23q1.11-0.31 2.25-0.63c3.02-1.18 3.02-1.18 4.45-4.44 2.3-2.93 2.3-2.93 5.83-3.48q1.96 0.12 3.97 0.24c5.83 0.39 5.83 0.39 11.5-0.69 4.74-1.13 4.74-1.13 7 0z"/>
	<path class="s35" d="m536 267q0.99 0 2 0 0 0.99 0 2c2.97 0.5 2.97 0.5 6 1q0 0.49 0 1c-34.32-0.33-68.64-0.66-104-1q0-0.49 0-1c31.68 0 63.36 0 96 0q0-0.99 0-2z"/>
	<path class="s36" d="m417 710c3.9 3.29 3.9 3.29 4.38 6.63-0.38 2.37-0.38 2.37-2.38 4.37q1.48 0.99 3 2c-7.26 0-14.52 0-22 0q0 0.49 0 1c-7.92 0-15.84 0-24 0q0-0.99 0-2c5.31-0.75 10.4-1.12 15.78-1.1q1.04 0 2.12 0.01 3.3 0.01 6.6 0.03 2.26 0.01 4.52 0.01 5.49 0.02 10.98 0.05c0.33-3.63 0.66-7.26 1-11z"/>
	<path class="s37" d="m658 718c1 2 1 2 0.57 4.11-0.74 3.74-0.68 7.41-0.63 11.2q0 1.11 0.01 2.25 0.02 2.72 0.05 5.44 0.99-1.48 2-3 0.29 2.19 0.56 4.38 0.16 1.21 0.32 2.46c0.12 2.16 0.12 2.16-0.88 4.16 2.87 7.61 6.78 13.77 13 19-3.79 0-4.31-0.88-6.94-3.5-8.16-8.57-11.13-19.5-11.37-31.25 0.36-12.3 0.36-12.3 3.31-15.25z"/>
	<path class="s38" d="m315.56 753.94c1.21 0.03 1.21 0.03 2.44 0.06q0 1.48 0 3-0.49 0.49-1 1 0 0.98 0 2-1.48-0.49-3-1 0.49-1.48 1-3-1.97 1.97-4 4 1.48 0.49 3 1 0 1.48 0 3 1.97-0.49 4-1c-4.19 5.33-10.58 7.48-17.1 8.47q-3.94 0.37-7.9 0.53 0-0.49 0-1c6.93-1.49 6.93-1.49 14-3q-0.49-0.49-1-1-0.49-1.48-1-3 0.99-0.49 2-1-1.48-0.99-3-2 0.84-0.63 1.71-1.28 1.1-0.81 2.23-1.66 1.09-0.81 2.21-1.65c3.17-2.42 3.17-2.42 5.41-2.47z"/>
	<path class="s39" d="m552 499c0.5 0.99 0.5 0.99 1 2-2.8 3.44-5.52 6.6-8.94 9.44-2.36 1.97-4.11 3.69-6.06 6-5.58 6.57-11.87 12.51-18 18.56-0.5-1.49-0.5-1.49-1-3q0.99 0 2 0 0.09-0.83 0.19-1.69c1.16-3.3 3.21-5.03 5.81-7.31q0.99 0 2 0 0-0.99 0-2c1.61-1.55 1.61-1.55 3.75-3.31 2.35-2 4.32-3.78 6.25-6.19 2.41-3.01 5.16-5.36 8.1-7.85 1.71-1.49 3.32-3.02 4.9-4.65z"/>
	<path class="s40" d="m424 700q0.99 0.49 2 1 0 1.97 0 4 1.48 0.49 3 1-0.49 0.99-1 2-0.99-0.49-2-1 0.99 0.99 2 2 0 1.48 0 3-0.92 0.09-1.88 0.19c-2.4 0.64-2.4 0.64-3.37 3.37q-0.37 1.2-0.75 2.44-0.99-1.97-2-4-0.99 1.97-2 4c-0.33-3.96-0.66-7.92-1-12q2.46-0.99 5-2c1.34-2.02 1.34-2.02 2-4z"/>
	<path class="s17" d="m361 720q0.49 0 1 0c-0.33 5.94-0.66 11.88-1 18q0.99 0 2 0c1.03 3.9 1.95 7.48 2.31 11.5 1.28 6.49 5.48 11.51 9.69 16.5-2.72-0.36-3.84-0.84-5.78-2.83-8.99-12.67-10.12-25.09-9.22-40.17q0.49-1.48 1-3z"/>
	<path class="s41" d="m283 652c8.91-0.58 16.73 0.49 25 4q0.49 0.99 1 2c-7.07 1.63-13.83 2.74-21 1q-0.99-0.99-2-2c2.97 0.33 5.94 0.66 9 1q0.49-1.48 1-3-0.99 0-2 0 0 0.99 0 2-1.97-0.49-4-1 0-1.48 0-3c-2.31 0-4.62 0-7 0q0-0.49 0-1z"/>
	<path class="s42" d="m554 415c3.71 1.32 6.04 3.81 8.77 6.57q1.32 1.34 2.69 2.72 1.37 1.39 2.79 2.83 1.42 1.44 2.84 2.87 3.46 3.5 6.91 7.01c-3 1-3 1-5.06 0.31-2.27-1.54-2.77-2.88-3.94-5.31q-1.48-0.49-3-1c-2.45-2.06-3.58-4.17-5-7q-0.99-0.49-2-1 0-0.99 0-2-1.97-0.99-4-2 0-0.99 0-2-1.48-0.49-3-1 0.99-0.49 2-1z"/>
	<path class="s43" d="m659 712c2.13 2.13 2.53 3.1 3 6q-0.49 0.49-1 1-0.06 3.5 0 7 0.99 0 2 0-0.49 0.99-1 2-0.49 0-1 0c-0.66 5.28-1.32 10.56-2 16-2.47-3.7-2.26-6.53-2.19-10.81q0-1.05 0-2.12c0.03-3.23 0.22-6.28 0.76-9.46 0.69-2.58 0.69-2.58-0.57-4.61 0.94-2.62 0.94-2.62 2-5z"/>
	<path class="s37" d="m694 688c-2.64 1.41-5.07 2.37-8 3q1.97 0.99 4 2c-2.98 1.52-5.82 2.94-9 4q0-0.99 0-2c-5.42 0.38-7.41 2.03-11 6q-1.96 1.55-4 3c0.84-5.4 4.82-7.89 9-11 6.4-3.85 11.49-5.14 19-5z"/>
	<path class="s44" d="m469.21 320.62c1.04 0 1.04 0 2.1 0q1.06 0.01 2.15 0.01c6.89 0.14 13.22 1.53 19.54 4.37q0.49 0.98 1 2c-3.37-0.49-6.43-1.14-9.69-2.19q-1.63-0.4-3.31-0.81-1.48 0.98-3 2c-2.04 0.41-2.04 0.41-4.19 0.62q-1.88 0.19-3.81 0.38 0-1.48 0-3c-2.64-0.33-5.28-0.66-8-1 2.44-2.44 3.87-2.31 7.21-2.38z"/>
	<path class="s45" d="m365 466q0.49 0 1 0c0.02 0.83 0.02 0.83 0.03 1.67q0.17 8.69 0.34 17.38 0.07 3.23 0.13 6.47 0.09 4.67 0.18 9.34 0.03 1.42 0.05 2.88c0.14 6.46 0.61 12.84 1.27 19.26q0.49 0 1 0 0 2.46 0 5-1.48 0-3 0c-1.2-6.57-1.13-13.05-1.1-19.71 0-1.82 0-1.82 0.01-3.67q0.01-5.78 0.03-11.56 0.01-3.92 0.01-7.85 0.02-9.61 0.05-19.21z"/>
	<path class="s46" d="m397 287q0.99 0.49 2 1c-2.63 3.88-2.63 3.88-6 5q-0.46 0.92-0.94 1.88c-1.58 3.15-3.96 4.57-7.06 6.12q-0.58 1.85-1.19 3.75c-1.7 4.93-4.42 6.6-8.81 9.25 3.8-10.6 12.68-20.78 22-27z"/>
	<path class="s47" d="m594 733c4.3 1.43 5.97 4.36 8.69 7.88q0.76 0.95 1.55 1.93 0.72 0.92 1.46 1.87 0.66 0.84 1.34 1.71c0.96 1.61 0.96 1.61 0.96 4.61-3-1-3-1-4.94-3.44-2-2.48-3.11-3.51-6.06-4.56q-1.48 0-3 0-0.49-1.48-1-3c1.44-2.19 1.44-2.19 3-4q-0.99 0-2 0 0-1.48 0-3z"/>
	<path class="s48" d="m497 356c6.78 5.55 12.86 11.76 19 18q-1.48 0.99-3 2-1.69-1.4-3.38-2.81-0.93-0.78-1.89-1.58c-2.47-2.3-3.67-4.42-4.73-7.61q-1.48-0.49-3-1 0-0.99 0-2-1.48 0.49-3 1-0.99-1.48-2-3 0.99-1.48 2-3z"/>
	<path class="s49" d="m383 698c0 3.14-0.4 4.04-1.88 6.69-1.5 2.87-2.5 5.46-3.18 8.62-0.86 3.38-1.2 4.69-3.94 6.69-2.01-6.47-2.1-9.81 1-16q1.48 0.49 3 1c1.65-2.31 3.3-4.62 5-7z"/>
	<path class="s36" d="m633 728q0.49 0 1 0c0 14.85 0 29.7 0 45q-2.46 0-5 0-0.99-1.97-2-4 1.48 0 3 0 0.49 0.99 1 2 0.99 0 2 0c0-9.24 0-18.48 0-28q-0.99 0-2 0 0-2.96 0-6 0.49 0 1 0c0.33-2.97 0.66-5.94 1-9z"/>
	<path class="s50" d="m626 680q0.49 0 1 0c0.33 20.13 0.66 40.26 1 61q-1.97-1.97-4-4c0.5-0.5 0.5-0.5 1-1q0.17-2.62 0.21-5.25c0.03-1.69 0.03-1.69 0.06-3.4q0.02-1.82 0.05-3.7c0.03-1.86 0.03-1.86 0.06-3.76q0.08-4.96 0.15-9.92 0.08-5.06 0.16-10.11 0.16-9.93 0.31-19.86z"/>
	<path class="s51" d="m360 292q1.97 0 4 0 0.15 0.92 0.31 1.88c0.57 2.49 0.57 2.49 3.69 4.12q-0.88-0.03-1.79-0.06c-4.92 0.08-4.92 0.08-8.85 2.73-2.23 3.57-3.99 7.35-5.36 11.33-0.71-1.55-0.71-1.55-1-4 1.01-2.5 2.05-4.76 3.31-7.13q0.48-0.94 0.98-1.91c1.37-2.65 2.59-4.84 4.71-6.96z"/>
	<path class="s52" d="m520 381c3.3 0.58 4.91 1.55 7.23 3.94 0.86 0.88 0.86 0.88 1.74 1.77q0.88 0.91 1.78 1.85 0.9 0.92 1.82 1.87 2.23 2.28 4.43 4.57-0.49 0.99-1 2c-2.06 0.62-2.06 0.62-4 1q-0.06-1.08-0.13-2.19c-1.25-4.02-3.59-5.23-6.87-7.81q0-0.99 0-2-1.97-0.49-4-1-0.49-1.97-1-4z"/>
	<path class="s53" d="m768 770q2.41-0.08 4.81-0.13 1.34-0.03 2.71-0.07c2.48 0.2 2.48 0.2 5.48 2.2q-1.48 0-3 0 0.49 1.97 1 4-3.59 0.12-7.19 0.19-1 0.04-2.04 0.07c-4.48 0.07-7.16-0.59-10.77-3.26 2-1 2-1 5.13-0.06q1.41 0.52 2.87 1.06 0.49-1.97 1-4z"/>
	<path class="s54" d="m498 690c9.57 0 19.14 0 29 0q0 1.97 0 4-2.46 0-5 0 0-0.49 0-1c-0.83-0.04-0.83-0.04-1.68-0.08q-3.79-0.17-7.57-0.36-1.3-0.06-2.64-0.12-1.26-0.06-2.56-0.12-1.16-0.06-2.35-0.11c-2.16-0.21-4.12-0.63-6.2-1.21q-0.49 0.99-1 2 0-1.48 0-3z"/>
	<path class="s55" d="m227 652c3.96 0 7.92 0 12 0q0 0.49 0 1c2.97 0.33 5.94 0.66 9 1q0 0.49 0 1c-5.94 0.5-5.94 0.5-12 1q0.49 2.96 1 6-1.08-0.92-2.19-1.88c-2.59-1.96-4.76-3.07-7.81-4.12q0-1.97 0-4z"/>
	<path class="s56" d="m499 739q1.97 0.49 4 1 0 2.46 0 5-0.99 0-2 0-0.65 1.6-1.31 3.25c-1.25 2.9-2.53 5.4-4.69 7.75q-0.99 0-2 0 2.79-8.57 6-17z"/>
	<path class="s57" d="m400.31 688.88c2.35 1.56 2.35 1.56 4.69 3.12q-3.66 0.29-7.31 0.56-1.03 0.09-2.09 0.17c-3.23 0.24-5.5 0.3-8.6-0.73-3.15 0.88-3.15 0.88-6 2q0-0.99 0-2c6.4-3.32 12.15-5.84 19.31-3.12z"/>
	<path class="s58" d="m480 751c2 1 2 1 3.13 4.06q0.43 1.45 0.87 2.94-0.99 0-2 0 0-0.99 0-2-0.99 0-2 0 0.49 1.48 1 3-1.97 0.49-4 1 0.49 0.49 1 1 0.99 0 2 0 0.49 1.97 1 4c-3.75 3-3.75 3-6 3-0.33-2.97-0.66-5.94-1-9q0.99 0 2 0 0.43-1.14 0.88-2.31c1.12-2.69 1.12-2.69 3.12-5.69z"/>
	<path class="s59" d="m614 473c1.63 2.5 1.63 2.5 3 5-0.94 0.26-0.94 0.26-1.9 0.52-1.22 0.36-1.22 0.36-2.48 0.73q-1.21 0.35-2.46 0.7c-2.65 1.29-3.03 2.41-4.16 5.05-0.99 0.5-0.99 0.5-2 1q0-0.99 0-2-0.99-0.49-2-1 2.43-2.51 4.88-5 1.35-1.39 2.74-2.81c2.38-2.19 2.38-2.19 4.38-2.19z"/>
	<path class="s60" d="m765 668q1.48 0 3 0 0.12 2.44 0.19 4.88 0.05 1.35 0.1 2.74-0.14 1.17-0.29 2.38-1.48 0.99-3 2-0.49-1.48-1-3-0.49 0.99-1 2-0.99 0-2 0 0 0.99 0 2-0.99-0.49-2-1 0.49-0.99 1-2 0.99 0 2 0 0-0.99 0-2-0.99-0.49-2-1 1.14-1.76 2.31-3.5 0.64-0.97 1.3-1.97c0.69-0.76 0.69-0.76 1.39-1.53z"/>
	<path class="s61" d="m345 512q0.49 0 1 0c0 5.28 0 10.56 0 16q2.46-0.49 5-1c-0.45 4.67-1.02 7.39-4 11-2.62-9.03-3.27-16.68-2-26z"/>
	<path class="s62" d="m586 447c3.22 1.41 5.32 3.1 7.75 5.63 0.92 0.94 0.92 0.94 1.86 1.91 0.69 0.72 0.69 0.72 1.39 1.46-2.25 2.5-2.25 2.5-5 5q-1.97 0-4 0 0-0.99 0-2 1.97-0.49 4-1-0.99-1.48-2-3 0-1.48 0-3-0.99 0-2 0 0-0.99 0-2-0.99 0-2 0 0-1.48 0-3z"/>
	<path class="s63" d="m432 752q1.48 0.49 3 1c-2.39 6.06-4.1 8.05-10 11q0-1.48 0-3-1.48-0.49-3-1c1.36-0.87 1.36-0.87 2.75-1.75 2.77-1.92 4.97-3.79 7.25-6.25z"/>
	<path class="s64" d="m339 739q0.49 1.48 1 3c-2.46 4.86-5.92 9.39-10 13-0.54-3.06-1-5.89-1-9q0.92-0.22 1.88-0.44c2.15-0.49 2.15-0.49 4.12-1.56q0.99 0.49 2 1 0.99-2.96 2-6z"/>
	<path class="s65" d="m536 549c-1.51 3.57-3.61 5.84-6.35 8.55q-1.27 1.26-2.58 2.56-1.33 1.3-2.7 2.64-1.33 1.33-2.71 2.69-3.33 3.29-6.66 6.56-0.99-0.49-2-1c5.94-5.94 11.88-11.88 18-18q-0.99 0-2 0 0-0.99 0-2c3-2 3-2 7-2z"/>
	<path class="s66" d="m412 281c-0.66 1.98-1.32 3.96-2 6-4.05 1.16-6.22 0.84-10-1 6.5-6.96 6.5-6.96 12-5z"/>
	<path class="s17" d="m429 760q0.99 0.49 2 1-1.65 1.69-3.31 3.38-0.92 0.93-1.87 1.89c-1.82 1.73-1.82 1.73-4.82 3.73-2.19-0.37-2.19-0.37-4-1 1.32-1.65 2.64-3.3 4-5q-1.97 0-4 0c1.19-1.5 1.19-1.5 3-3 2.69-0.19 2.69-0.19 5 0q0.49 0.99 1 2 1.48-1.48 3-3z"/>
	<path class="s67" d="m649 395q0.49 0 1 0c0.2 5.83-0.4 10.81-1.88 16.44q-0.25 1.07-0.52 2.18c-0.46 1.81-1.02 3.6-1.6 5.38q-0.99 0.49-2 1c-0.33-3.96-0.66-7.92-1-12q0.99 0.99 2 2c2.19-3.28 2.54-5.33 3.13-9.19 0.25-1.63 0.25-1.63 0.5-3.29q0.18-1.24 0.37-2.52z"/>
	<path class="s68" d="m548 674c3.93 3.7 6.95 7.55 10 12-4.75 1-4.75 1-7 1 0-2.31 0-4.62 0-7q-1.48-0.49-3-1 0-2.46 0-5z"/>
	<path class="s69" d="m310 763q0.86 0.28 1.75 0.56c2.46 0.48 3.89 0.2 6.25-0.56-4.19 5.33-10.58 7.48-17.1 8.47q-3.94 0.37-7.9 0.53 0-0.49 0-1 1.49-0.27 3.03-0.55 1.92-0.38 3.91-0.76 1.92-0.37 3.9-0.74 1.56-0.47 3.16-0.95 0.49-1.48 1-3 0.99 0 2 0 0-0.99 0-2z"/>
	<path class="s70" d="m602 740q0.99 0 2 0c2.1 2.65 4.07 5.35 6.02 8.12 2.88 3.93 5.34 6 9.98 7.88q-1.48 0.49-3 1 1.48 2.46 3 5c-4.16-1.39-5.88-4.37-8.44-7.75q-1.43-1.87-2.87-3.73-0.68-0.9-1.38-1.82-1.79-2.3-3.66-4.53c-1.65-2.17-1.65-2.17-1.65-4.17z"/>
	<path class="s71" d="m491 738c1.15 1.61 1.15 1.61 2 4-0.9 3.02-0.9 3.02-2.38 6.25q-0.71 1.61-1.46 3.27-0.57 1.22-1.16 2.48-0.99 0-2 0c-0.75-2.69-0.75-2.69-1-6 1.81-2.56 1.81-2.56 4-5 1.24-2.68 1.24-2.68 2-5z"/>
	<path class="s72" d="m767 693q3.01 0.09 6 0.34c1.83 0.14 1.83 0.14 3.69 0.28q1.9 0.16 3.87 0.32 1.92 0.15 3.89 0.3 4.78 0.37 9.55 0.76 0 0.49 0 1c-8.91 0-17.82 0-27 0 0 2.64 0 5.28 0 8q-0.49 0-1 0-0.04-2.47-0.06-4.94-0.02-1.37-0.04-2.77c0.1-2.29 0.1-2.29 1.1-3.29z"/>
	<path class="s73" d="m438.06 690.77q1.24 0.02 2.51 0.03 1.34 0.01 2.72 0.02c1.4 0.03 1.4 0.03 2.84 0.05q1.41 0.02 2.86 0.03 3.5 0.04 7.01 0.1-0.49 0.98-1 2-1.42-0.06-2.87-0.13c-4.1-0.03-7.84 0.88-11.8 1.89-2.76 0.28-4-0.32-6.33-1.76 2-2 2-2 4.06-2.23z"/>
	<path class="s74" d="m501 722q0.99 0.49 2 1 0 0.99 0 2 0.99 0 2 0-0.68 2.19-1.38 4.38-0.38 1.21-0.77 2.46c-0.85 2.16-0.85 2.16-2.85 4.16 0.33-2.64 0.66-5.28 1-8q-0.99 2.96-2 6-0.99 0-2 0c0.54-4.56 1.79-7.97 4-12z"/>
	<path class="s75" d="m503 713c1.21 3.64 0.67 4.33-0.94 7.69q-0.57 1.2-1.15 2.45-0.45 0.91-0.91 1.86-1.48-0.49-3-1c0-2.31 0-4.62 0-7q0.99 0 2 0 0-1.48 0-3 1.97-0.49 4-1z"/>
	<path class="s76" d="m474 730q0.62 0.83 1.25 1.69c1.87 2.47 3.8 4.89 5.75 7.31q-0.99 1.97-2 4-1.97-0.49-4-1-0.34-3.03-0.68-6.05c-0.23-2.02-0.23-2.02-1.32-3.95q0.49-0.99 1-2zm-1 8c1 4 1 4 1 4z"/>
	<path class="s61" d="m411 773c-1 2-1 2-2.62 2.61-3.18 0.52-6.28 0.56-9.5 0.58q-1.86 0.02-3.76 0.04c-3.12-0.23-3.12-0.23-5.12-2.23 7.03-0.67 13.94-1.12 21-1z"/>
	<path class="s61" d="m674 769q6 2 12 4 2.84 0.33 5.69 0.56 1.48 0.13 3.01 0.26c1.14 0.09 1.14 0.09 2.3 0.18q-0.49 0.99-1 2c-7.71 0.44-15.47-0.65-22-5q0-0.99 0-2z"/>
	<path class="s77" d="m338 744q0.49 1.48 1 3c-0.92 1.77-1.85 3.53-2.89 5.22-1.24 1.92-1.24 1.92-2.55 4.66-1.56 2.12-1.56 2.12-4.25 2.93q-1.14 0.09-2.31 0.19c0-3 0-3 2.13-5.19q0.67-0.62 1.36-1.27c2.84-2.9 5.14-6.25 7.51-9.54z"/>
	<path class="s78" d="m506 543q1.48 1.48 3 3c-3.63 3.63-7.26 7.26-11 11-1-4-1-4 0-6q1.48-0.49 3-1 0.49-0.99 1-2 0.99 0 2 0 0.99-2.46 2-5z"/>
	<path class="s79" d="m630 396q0.49 0 1 0c-0.33 2.31-0.66 4.62-1 7q-0.99 0-2 0 0 1.48 0 3 0.99 0 2 0 0 0.99 0 2-0.99 0-2 0c-0.43 1.45-0.43 1.45-0.88 2.94-1.12 3.06-1.12 3.06-3.12 4.06 0.5-1.49 0.5-1.49 1-3 0.03-2.58-0.07-5.14-0.16-7.72 0.16-2.28 0.16-2.28 2.16-4.28q0.99-1.48 2-3 0.49-0.49 1-1z"/>
	<path class="s80" d="m438 333q0.99 0.99 2 2c-0.38 2.13-0.38 2.13-1 4q-0.99-0.49-2-1 0 0.99 0 2 1.48 0.49 3 1-0.49 0.99-1 2c-3.08-0.66-5.08-1.54-8-3 2.31-2.31 4.62-4.62 7-7z"/>
	<path class="s81" d="m625 298c3.38 1.39 4.87 2.82 6.75 5.94q0.64 1.03 1.3 2.09c0.95 1.97 0.95 1.97 0.95 4.97q-2.96 0.49-6 1-0.99-1.97-2-4 1.48 0 3 0c0-3.17-0.42-4.06-2-6.69q-0.99-1.63-2-3.31z"/>
	<path class="s39" d="m608 275c2 0 2 0 3.63 1.38 1.37 1.62 1.37 1.62 1.37 3.62q1.48 0.49 3 1 0 0.99 0 2 1.48 0.49 3 1 0.49 2.46 1 5-1.76-1.43-3.5-2.88-0.97-0.79-1.97-1.61-0.75-0.74-1.53-1.51 0-0.99 0-2-0.95-0.37-1.94-0.75c-2.06-1.25-2.06-1.25-2.81-3.38q-0.12-0.92-0.25-1.87z"/>
	<path class="s82" d="m708 763c2.31 0 4.62 0 7 0q0 2.96 0 6c-1.98 0.99-3.96 1.98-6 3q-0.99-0.99-2-2 0.99-0.99 2-2c-0.32-2.6-0.32-2.6-1-5z"/>
	<path class="s83" d="m546 750c3 2 3 2 3.77 4.31q0.23 1.33 0.48 2.69 0.25 1.32 0.52 2.69c0.23 2.31 0.23 2.31-0.77 4.31q-2.46-0.49-5-1-0.49-1.97-1-4c0.99 0.5 0.99 0.5 2 1-0.28-1.08-0.28-1.08-0.56-2.19-0.46-2.94-0.18-4.95 0.56-7.81z"/>
	<path class="s84" d="m368 704q1.48 0.49 3 1-0.4 0.74-0.81 1.5c-1.63 3.42-2.89 6.94-4.19 10.5q-1.97 0-4 0c2.89-9.59 2.89-9.59 6-13z"/>
	<path class="s85" d="m685 694q0.99 0.49 2 1c-2 2.73-3.98 5.12-6.55 7.33-1.8 2.08-2.13 3.67-2.64 6.36-0.24 1.21-0.24 1.21-0.48 2.45q-0.16 0.91-0.33 1.86-1.48-0.99-3-2c1.14-7.48 5.85-11.73 11-17z"/>
	<path class="s86" d="m690 687c4.29 0 8.58 0 13 0-1.98 0.99-1.98 0.99-4 2q-1.48 0.99-3 2c-3.14 0.41-3.14 0.41-6.69 0.63q-1.76 0.11-3.57 0.22c-1.36 0.08-1.36 0.08-2.74 0.15 2.32-1.55 4.51-2.8 7-4q0-0.49 0-1z"/>
	<path class="s87" d="m291 654c2.97 0.33 5.94 0.66 9 1-1.98 0.99-1.98 0.99-4 2q0.49 0.99 1 2-2.63-0.21-5.25-0.44-1.45-0.12-2.95-0.24c-6.18-0.7-6.18-0.7-8.8-3.32q2.37-0.08 4.75-0.13 1.32-0.03 2.67-0.07c2.69 0.21 4.28 0.83 6.58 2.2q0-0.99 0-2-1.48-0.49-3-1z"/>
	<path class="s88" d="m568 519q-1.61 1.77-3.25 3.5c-0.9 0.97-0.9 0.97-1.83 1.97-1.92 1.53-1.92 1.53-5.92 1.53q-0.49-2.46-1-5 1.48-0.49 3-1 0 0.99 0 2 0.99 0 2 0 0-1.48 0-3c3.01-0.93 3.87-1.04 7 0z"/>
	<path class="s55" d="m426 701q1.48 0 3 0c2.57 3.85 2.55 6.43 3 11-2.97-0.5-2.97-0.5-6-1q0-1.97 0-4 0.99-0.49 2-1-0.99-0.49-2-1 0-1.97 0-4z"/>
	<path class="s89" d="m596 699q0.99 0 2 0c0.31 0.93 0.31 0.93 0.63 1.88 1.92 2.97 4.04 3.25 7.37 4.12q-0.99 2.96-2 6-2.5-2.5-5-5-0.89-0.77-1.81-1.56c-1.19-1.44-1.19-1.44-1.19-5.44z"/>
	<path class="s90" d="m605 591q-0.99 2.46-2 5 0.99 0.99 2 2-2.96 0-6 0 0-0.49 0-1c-2.31-0.33-4.62-0.66-7-1 2.46-1.64 4.35-2.62 7.06-3.63q1.04-0.38 2.1-0.78c1.84-0.59 1.84-0.59 3.84-0.59z"/>
	<path class="s91" d="m297 761q1.48 0.49 3 1c-4.26 4.26-6.03 4.42-12 5q-0.49-1.97-1-4c3.2-1.07 5.66-1 9-1q0.49-0.49 1-1z"/>
	<path class="s92" d="m470 695c0 4.29 0 8.58 0 13q-1.48 0-3 0c-1.32-3.96-1.27-6.82-1-11 3-2 3-2 4-2z"/>
	<path class="s93" d="m589 496q0.99 0.49 2 1 0 0.99 0 2-0.99 0-2 0-0.49 1.97-1 4-1.97 0-4 0c1.29-2.88 2.66-4.87 5-7zm-6 8c-0.38 1.94-0.38 1.94-1 4-0.99 0.5-0.99 0.5-2 1q-0.99-0.99-2-2c2.75-3 2.75-3 5-3z"/>
	<path class="s94" d="m381 703q0.99 0.49 2 1c0.81 2.88 0.81 2.88 1 6-1.87 2.85-3.79 3.28-7 4q0.71-2.47 1.44-4.94 0.4-1.37 0.81-2.77c0.75-2.29 0.75-2.29 1.75-3.29z"/>
	<path class="s95" d="m393 593c3.81 0.67 7.35 1.73 11 3-2.55 2.35-3.71 2.98-7.25 3.19q-1.35-0.09-2.75-0.19-0.49-2.96-1-6z"/>
	<path class="s96" d="m587 569q1.48 0.49 3 1c-1.78 2.27-2.85 2.96-5.69 3.69-3.8 0.36-7.49 0.38-11.31 0.31 3.19-2.82 5.77-3.62 10-4q0.49 0.49 1 1 1.48-0.99 3-2z"/>
	<path class="s97" d="m630 530c1.07 3.2 0.95 4.89 0.56 8.19q-0.15 1.34-0.31 2.73c-0.12 1.03-0.12 1.03-0.25 2.08q-0.49-1.97-1-4-2.46 0.99-5 2 0.42-2.22 0.88-4.44 0.24-1.23 0.49-2.49 0.31-1.02 0.63-2.07 0.99-0.49 2-1 0 1.97 0 4 0.99-2.46 2-5z"/>
	<path class="s98" d="m778 767c2.64 0 5.28 0 8 0q0.49 1.48 1 3c-6.75 4-6.75 4-9 4q0.28-1.17 0.56-2.38c0.7-2.59 0.7-2.59-0.56-4.62z"/>
	<path class="s99" d="m360 564c2 1.38 2 1.38 4 3q0 0.99 0 2 0.99 0 2 0c1.62 1.68 1.62 1.68 3.44 3.88 2.14 2.58 3.73 4.23 6.56 6.12q-0.49 1.48-1 3-3.2-3.08-6.38-6.19-0.9-0.86-1.82-1.75c-3.2-3.14-5.55-5.63-6.8-10.06z"/>
	<path class="s100" d="m522 557q0.49 0.99 1 2 0.99 0.49 2 1c-2.64 2.64-5.28 5.28-8 8-1.25-2.49-0.78-3.41 0-6q-0.99-0.49-2-1c1-1 1-1 3.56-1.06 1.21 0.03 1.21 0.03 2.44 0.06q0.49-1.48 1-3z"/>
	<path class="s101" d="m633 459c5.49 2.75 6.56 4.1 9 10 0.99 1.49 0.99 1.49 2 3q-0.49 1.48-1 3-2.22-3.15-4.44-6.31-0.63-0.89-1.27-1.81c-1.83-2.61-3.28-4.84-4.29-7.88z"/>
	<path class="s102" d="m595 265q1.97 0.49 4 1 0 0.99 0 2 1.97 0.49 4 1 0 1.48 0 3 2.96 0 6 0-0.49 0.99-1 2-1.48 0.49-3 1c-2.48-1.33-2.48-1.33-5.19-3.25q-1.34-0.93-2.73-1.89-1.02-0.92-2.08-1.86 0-1.48 0-3z"/>
	<path class="s103" d="m509 716q1.48 0 3 0c-1.32 4.61-3.13 8.15-6 12-0.99 0.5-0.99 0.5-2 1q0.68-2.13 1.38-4.25c0.38-1.18 0.38-1.18 0.77-2.39 0.8-2.23 1.75-4.27 2.85-6.36z"/>
	<path class="s104" d="m300 663c7.57 4 7.57 4 10 8q-1.48 0.49-3 1c-1.82-1.11-1.82-1.11-3.69-2.75q-0.93-0.79-1.88-1.61c-1.43-1.64-1.43-1.64-1.43-4.64zm-2 3q0.99 0 2 0 0 0.99 0 2-0.99 0-2 0 0-0.99 0-2z"/>
	<path class="s105" d="m434 705c2.46 3.69 3.01 6.7 4 11q-0.99 0-2 0c0 2.97 0 5.94 0 9q-0.49 0-1 0-0.09-1.31-0.18-2.67-0.13-1.73-0.26-3.52-0.12-1.71-0.24-3.48c-0.25-3.26-0.25-3.26-0.92-6.13-0.4-2.2-0.4-2.2 0.6-4.2z"/>
	<path class="s106" d="m564 660q1.48 0.49 3 1 0 1.48 0 3 1.48 0 3 0 0 1.48 0 3 0.99 0 2 0c0.99 1.98 1.98 3.96 3 6q-1.48 0-3 0c-2.04-2.08-2.04-2.08-4.19-4.81q-1.07-1.34-2.17-2.71c-1.64-2.48-1.64-2.48-1.64-5.48z"/>
	<path class="s107" d="m492 564q-0.49 0.49-1 1 0.99 0.49 2 1c-4.47 3.31-8.62 3.66-14 4 3.58-4 7.49-7.84 13-6z"/>
	<path class="s108" d="m593 294c6.58 3.85 12.87 9.43 15 17-4.04-2.94-7.14-6.31-10.35-10.1-1.6-1.91-1.6-1.91-3.36-3.52-1.29-1.38-1.29-1.38-1.29-3.38z"/>
	<path class="s53" d="m429 249c1.94 1.5 1.94 1.5 3 3q-2.95 0-6 0-0.49 1.48-1 3c-2-1-2-1-4-3q-1.48 0-3 0 0-0.99 0-2c3.69-1.18 7.14-1.28 11-1z"/>
	<path class="s109" d="m642 544q0.99 1.48 2 3 0.99-0.49 2-1c-0.48 5-2.03 7.98-5 12q-0.49-0.99-1-2 0.52-1.42 1.06-2.88c1.25-3.01 1.25-3.01 0.06-5.5q-0.55-0.8-1.12-1.62 0.99-0.99 2-2z"/>
	<path class="s110" d="m566 429c5.08 0.15 7.36 3.02 10.64 6.5q0.67 0.74 1.36 1.5c-3 1-3 1-5.06 0.31-2.27-1.54-2.77-2.88-3.94-5.31q-1.48-0.49-3-1 0-0.99 0-2z"/>
	<path class="s111" d="m587 288c4.71 2.09 8.47 5.28 12 9q-1.48 0-3 0-0.99-0.99-2-2-1.48 0-3 0c-2.69-2.5-2.69-2.5-5-5q0.49-0.99 1-2z"/>
	<path class="s112" d="m369 282q0.99 0.49 2 1-0.49 0.99-1 2 2.46-0.49 5-1 0 1.97 0 4c-1.98-0.66-3.96-1.32-6-2q0 0.99 0 2-2.46-0.49-5-1c0.81-1.94 0.81-1.94 2-4q1.48-0.49 3-1z"/>
	<path class="s28" d="m680 721c6.93 0.33 13.86 0.66 21 1q0 0.49 0 1c-4.96 1.32-9.91 1.09-15 1q0-0.99 0-2-2.96 0-6 0 0-0.49 0-1z"/>
	<path class="s113" d="m509 705q1.48 0 3 0-0.49 1.39-1 2.81c-1.15 3.11-1.15 3.11-1 6.19q-0.49 1.48-1 3c-2.06 0.69-2.06 0.69-4 1q0.17-2.22 0.38-4.44 0.1-1.23 0.21-2.49c0.2-1.03 0.2-1.03 0.41-2.07q0.99-0.49 2-1 0.49-1.48 1-3z"/>
	<path class="s114" d="m321 680q1.97 0.49 4 1 0.99-0.49 2-1 0 1.97 0 4-0.99 0-2 0-0.49 1.97-1 4c-0.99-2.64-1.98-5.28-3-8zm-2 1q0.49 0.99 1 2 0.99 0 2 0 0.49 2.96 1 6c-2.9-2.4-3.5-4.31-4-8z"/>
	<path class="s115" d="m546 672c2.48 0.5 2.48 0.5 5 1q0 0.99 0 2 2.46 0 5 0c1 3 1 3 0 6-3.36-1.39-5.07-2.92-7-6q0-0.99 0-2-0.99 0-2 0-0.49 0.99-1 2 0-1.48 0-3z"/>
	<path class="s116" d="m619 654c2.38-0.13 2.38-0.13 5 0q0.99 0.99 2 2 1.48 0.49 3 1c0 3 0 3-1 5-7.71-4-7.71-4-9-8z"/>
	<path class="s117" d="m429 337q1.48 0 3 0c-0.41 4.83-2.46 6.83-6 10q-0.49-0.99-1-2c2.51-6.51 2.51-6.51 4-8z"/>
	<path class="s118" d="m390 257q0.49 0.99 1 2 0.99 0 2 0 0-0.99 0-2 2.46 0 5 0c-3.41 3.97-7.33 5.87-12 8q-0.49-0.99-1-2 2.46-0.99 5-2-0.49-1.48-1-3 0.49-0.49 1-1z"/>
	<path class="s119" d="m480 737q1.48 0 3 0c3 6.5 3 6.5 3 11q-0.99 0-2 0-1.01-2.18-2-4.38-0.55-1.21-1.13-2.46c-0.87-2.16-0.87-2.16-0.87-4.16z"/>
	<path class="s120" d="m577 675q1.97 0 4 0 0.18 1.42 0.38 2.88c0.34 3.21 0.34 3.21 2.62 5.12q-0.99 0.99-2 2c-1.98-2.64-3.96-5.28-6-8q0.49-0.99 1-2z"/>
	<path class="s121" d="m576 401c2.31 0.33 4.62 0.66 7 1q0.22 0.89 0.44 1.81c0.45 1.75 0.99 3.48 1.56 5.19-3 0-3 0-4.61-1.24q-0.77-0.81-1.58-1.64-0.79-0.79-1.6-1.61c-1.21-1.51-1.21-1.51-1.21-3.51z"/>
	<path class="s122" d="m468 346c-4.75 3.68-8.01 4.59-14 5 3.3-4.08 8.87-7.26 14-5z"/>
	<path class="s123" d="m349 314q0.99 0.49 2 1-0.17 2.19-0.38 4.38-0.1 1.21-0.21 2.46c-0.41 2.16-0.41 2.16-2.41 4.16q-1.05 1.97-2 4c0.42-5.6 0.92-10.72 3-16z"/>
	<path class="s39" d="m581 257q2.45 1.1 4.88 2.25 1.35 0.62 2.74 1.27c2.58 1.6 3.34 2.67 4.38 5.48q-7-3.5-14-7 0.99-0.99 2-2z"/>
	<path class="s124" d="m729 755q0.99 0.49 2 1c2.1-0.4 2.1-0.4 4-1q-0.99 1.97-2 4-0.99 0-2 0-0.92 0.95-1.88 1.94c-2.12 2.06-2.12 2.06-6.12 3.06 1.98-2.97 3.96-5.94 6-9z"/>
	<path class="s125" d="m344 729q0.99 0.99 2 2c-0.24 5.22-2.31 8.67-5 13q-0.99 0-2 0 2.5-7.5 5-15z"/>
	<path class="s102" d="m322 724q1.48 0 3 0c-0.33 2.97-0.66 5.94-1 9q-1.48 0-3 0c-0.63-3.38-0.63-3.38-1-7q0.99-0.99 2-2z"/>
	<path class="s126" d="m703.7 691.46q1.47 0.45 2.99 0.91 1.48 0.45 3.01 0.9c1.14 0.36 1.14 0.36 2.3 0.73q0.49 1.97 1 4-1.48 0.49-3 1 0-0.99 0-2-1.48-0.49-3-1 0-0.99 0-2c-2.97-0.33-5.94-0.66-9-1 3-2 3-2 5.7-1.54z"/>
	<path class="s127" d="m350 322q0.49 0 1 0-0.03 1.39-0.06 2.81c-0.1 3.21-0.1 3.21 1.06 6.19-0.25 2.56-0.25 2.56-1 5q-1.48 0.99-3 2c-1.38-3.77-0.6-6.45 0.44-10.25q0.43-1.61 0.87-3.27 0.34-1.22 0.69-2.48z"/>
	<path class="s128" d="m448 324q0.49 1.48 1 3c-3.96 1.98-3.96 1.98-8 4q0-3 0-6c2.46-1.23 4.28-1.07 7-1z"/>
	<path class="s98" d="m618 291q0.99 0 2 0 0.49 0.99 1 2 1.48 0 3 0c1.69 2.5 1.69 2.5 3 5q-1.48 0.49-3 1c-2.56-1.38-2.56-1.38-5-3q-0.99-0.49-2-1 0.49-1.97 1-4z"/>
	<path class="s129" d="m427 248c4.29 0.33 8.58 0.66 13 1-2 2-2 2-5 4-2.97-0.38-5.38-1.6-8-3q0-0.99 0-2z"/>
	<path class="s130" d="m485 768c0.98 3.05 0.98 4.95 0 8q-2.95 0-6 0-0.49-1.48-1-3 2.46 0 5 0 0.99-2.46 2-5z"/>
	<path class="s131" d="m464 739c3.7 2.46 4.39 4.98 5.75 9q0.35 0.96 0.71 1.95c0.58 1.66 1.07 3.35 1.54 5.05q-0.49 0.99-1 2-1.76-3.65-3.5-7.31-0.5-1.03-1.01-2.09c-2.49-5.26-2.49-5.26-2.49-8.6z"/>
	<path class="s132" d="m765 664q1.48 0.99 3 2c-4.75 5.75-4.75 5.75-7 8q-0.99-0.99-2-2 0.99 0 2 0-0.49-1.48-1-3 0.99-1.48 2-3 1.48 0 3 0 0-0.99 0-2z"/>
	<path class="s56" d="m540 548c-1.14 3.42-2.41 4.56-5 7q-1.11 1.11-2.25 2.25-0.86 0.86-1.75 1.75-1.48-0.49-3-1 2.43-2.51 4.88-5 1.35-1.39 2.74-2.81c2.38-2.19 2.38-2.19 4.38-2.19z"/>
	<path class="s21" d="m550 506q0 1.48 0 3c-4.34 4-4.34 4-7 4q-0.49 1.97-1 4-0.99-0.49-2-1c0.34-3.18 1.02-4.02 3.44-6.25 2.56-1.75 2.56-1.75 4.56-1.75q0.99-0.99 2-2z"/>
	<path class="s49" d="m619 423c1.22 3.65 0.65 4.64-0.75 8.13q-0.52 1.32-1.05 2.69c-1.2 2.18-1.2 2.18-4.2 3.18 0.58-3.76 1.65-6.53 3.56-9.81q0.68-1.18 1.38-2.4c0.53-0.88 0.53-0.88 1.06-1.79z"/>
	<path class="s133" d="m453 351q0.99 0.99 2 2c-0.25 2.56-0.25 2.56-1 5-0.99 0.5-0.99 0.5-2 1q-0.99-0.99-2-2-0.49 0.99-1 2-0.99-0.49-2-1c1.98-2.31 3.96-4.62 6-7z"/>
	<path class="s82" d="m626 343q0.99 0.49 2 1c1.25 4.64 1 9.23 1 14q-1.48-0.49-3-1 0.03-1.82 0.06-3.69c0.01-3.24-0.39-6.13-1.06-9.31q0.49-0.49 1-1z"/>
	<path class="s134" d="m491 744c2.97 0.5 2.97 0.5 6 1-1 2-1 2-3 3-0.9 1.88-0.9 1.88-1.63 4.06q-0.38 1.1-0.78 2.23-0.29 0.84-0.59 1.71c-1.17-3.5-1.13-6.33-1-10q0.49-0.99 1-2z"/>
	<path class="s135" d="m587 721c2.97 0.99 5.94 1.98 9 3q0 0.99 0 2-1.48 0-3 0-0.49 1.48-1 3c-5-5.75-5-5.75-5-8z"/>
	<path class="s136" d="m419 691q-0.49 1.48-1 3 0.99 0.49 2 1c-2.9 0.75-5 1-8 1q0.49-2.46 1-5c3-1 3-1 6 0z"/>
	<path class="s137" d="m529 656c6.04 1.36 9.63 4.86 14 9q-0.49 1.48-1 3-2.41-2.15-4.81-4.31-1.34-1.2-2.71-2.43c-1.88-1.71-3.71-3.44-5.48-5.26z"/>
	<path class="s129" d="m378 576c1.21 2.33 2.17 4.5 3 7q-0.99 0.99-2 2c-3-2-3-2-3.69-4.63q-0.15-1.16-0.31-2.37 1.48-0.99 3-2z"/>
	<path class="s45" d="m587 416c1.98 1.65 3.96 3.3 6 5q-0.49 1.48-1 3c-2.94-0.38-2.94-0.38-6-1q-0.49-0.99-1-2 1.48-0.99 3-2-0.49-1.48-1-3z"/>
	<path class="s138" d="m581 287c3.98 2.16 6.89 4.71 10 8-0.99 0.5-0.99 0.5-2 1-3.35-2.36-6.15-5.07-9-8q0.49-0.49 1-1z"/>
	<path class="s30" d="m303 764q0.49 1.97 1 4c-2.25 0.69-2.25 0.69-5 1-2.31-1.44-2.31-1.44-4-3 3.23-2.15 4.28-2.2 8-2z"/>
	<path class="s57" d="m546 744q0.99 0 2 0c0 4.29 0 8.58 0 13q-1.97-1.48-4-3c0.66-3.3 1.32-6.6 2-10z"/>
	<path class="s139" d="m468 716c1.94 0.56 1.94 0.56 4 2 0.91 3.86 1.26 6.22 0 10q-0.4-0.86-0.81-1.75c-1.12-2.31-1.12-2.31-2.88-4.25-1.31-2-1.31-2-1-4.25q0.34-0.86 0.69-1.75z"/>
	<path class="s140" d="m585 695q0.49 0.99 1 2 2.46-0.99 5-2c0.98 3.05 0.98 4.95 0 8q-1.97-0.99-4-2 0.99-0.49 2-1 0-0.99 0-2-1.48 0.49-3 1-0.49-1.97-1-4z"/>
	<path class="s141" d="m425 692q0.99 0 2 0 0.43 0.95 0.88 1.94c0.95 2.21 0.95 2.21 3.12 3.06q-0.49 1.97-1 4c-2.31-1.98-4.62-3.96-7-6q0.99-0.49 2-1 0-0.99 0-2z"/>
	<path class="s142" d="m743 694q3.5 0.06 7 0-0.49 0.99-1 2c-4.29 0-8.58 0-13 0q0-0.99 0-2c3.01-0.93 3.87-1.04 7 0z"/>
	<path class="s143" d="m303 661c3.21 0.17 3.21 0.17 6 0q-0.49 0.99-1 2c-5.83 1.51-8.85 0.63-14-2 3.69-2.46 5.09-1.68 9 0z"/>
	<path class="s144" d="m626 659c1.49 0.99 1.49 0.99 3 2q1.97 0 4 0 0-0.99 0-2 0.99 0 2 0-0.49 2.46-1 5-1.48 0.49-3 1 0-0.99 0-2-0.99 0-2 0-0.49 1.48-1 3c-1.46-2.65-2-3.89-2-7z"/>
	<path class="s145" d="m379 552c4.88 4.75 4.88 4.75 6 7q-1.48 0.49-3 1-0.99-0.49-2-1 0-0.99 0-2-1.48-0.49-3-1c1-3 1-3 2-4z"/>
	<path class="s146" d="m348 531c2.02 3.04 2.32 4.19 2.63 7.69q0.11 1.2 0.22 2.45 0.07 0.91 0.15 1.86-1.48 0.49-3 1c-1.02-4.63-0.84-8.34 0-13z"/>
	<path class="s147" d="m612 473q0.99 0 2 0c1.63 2.5 1.63 2.5 3 5-2.49 0.69-4.38 1-7 1 0.88-4.88 0.88-4.88 2-6z"/>
	<path class="s148" d="m645 423q0.99 0 2 0-0.49 1.48-1 3 0.28 1.26 0.56 2.56 0.22 1.2 0.44 2.44-0.99 0.99-2 2-1.48-1.48-3-3c1.88-5.88 1.88-5.88 3-7z"/>
	<path class="s149" d="m601 425c3.85 1.25 6.03 2.39 8 6q-0.49 1.48-1 3-1.76-1.39-3.5-2.81c-0.97-0.79-0.97-0.79-1.97-1.58-1.53-1.61-1.53-1.61-1.53-4.61z"/>
	<path class="s150" d="m357 296q0.99 0.49 2 1c-3.46 7.43-3.46 7.43-7 15-1.22-4.88-0.36-5.93 1.94-10.25q0.84-1.61 1.71-3.27 0.67-1.22 1.35-2.48z"/>
	<path class="s151" d="m315.81 753.69q1.08 0.15 2.19 0.31 0 1.48 0 3-0.49 0.49-1 1 0 0.98 0 2-1.48-0.49-3-1 0.49-1.48 1-3c-1.65 1.32-3.3 2.64-5 4q-0.99-0.49-2-1c4.31-4.92 4.31-4.92 7.81-5.31z"/>
	<path class="s75" d="m624 727q0.49 0 1 0c0 2.97 0 5.94 0 9q-1.97-0.99-4-2 0-2.46 0-5 1.48 0 3 0 0-0.99 0-2z"/>
	<path class="s152" d="m518 698q0.99 0.49 2 1c-1.33 3.59-2.81 6.85-5 10q-1.48 0.49-3 1c1.32-4.62 3.21-8.1 6-12z"/>
	<path class="s153" d="m583 687c2.91 2.22 4.95 3.93 7 7q-0.49 1.48-1 3-1.48 0-3 0-0.46-1.63-0.94-3.31-0.96-3.37-2.06-6.69z"/>
	<path class="s154" d="m765 668q1.48 0 3 0c0 3.3 0 6.6 0 10q-0.49 0-1 0 0-2.96 0-6-0.99 0-2 0 0 0.99 0 2-0.99 0-2 0c0.88-4.88 0.88-4.88 2-6z"/>
	<path class="s155" d="m650 508q0.49 0 1 0c0 3.96 0 7.92 0 12q0.99 0 2 0c-0.31 1.94-0.31 1.94-1 4q-1.48 0.49-3 1c0.33-5.61 0.66-11.22 1-17z"/>
	<path class="s123" d="m640 471c4.16 3.42 6.47 7.89 8 13q-0.49 1.48-1 3-1.76-3.43-3.5-6.88-0.5-0.97-1.01-1.97c-2.49-4.92-2.49-4.92-2.49-7.15z"/>
	<path class="s156" d="m586 447c3.21 1.38 5.05 2.92 7.25 5.63 0.78 0.94 0.78 0.94 1.58 1.91 0.58 0.72 0.58 0.72 1.17 1.46q-1.48 0-3 0 0-0.99 0-2c-2.48-0.99-2.48-0.99-5-2q0-0.99 0-2-0.99 0-2 0 0-1.48 0-3z"/>
	<path class="s157" d="m627 290c1.65 1.32 3.3 2.64 5 4-0.66 2.31-1.32 4.62-2 7q-1.48-0.99-3-2 0.28-1.39 0.56-2.81c0.68-3.2 0.68-3.2-0.56-6.19z"/>
	<path class="s158" d="m577 259c5.63 0.45 8.61 1.68 13 5q-0.49 1.48-1 3c-3-1-3-1-5-4q-3.45-1.61-7-3 0-0.49 0-1z"/>
	<path class="s159" d="m549 761q0.83 0.63 1.68 1.28 1.08 0.81 2.2 1.66 1.07 0.81 2.17 1.65c1.89 1.45 1.89 1.45 3.95 2.41q0 0.99 0 2c-2.31 0-4.62 0-7 0q-0.18-1.11-0.38-2.25c-0.58-2.56-1.41-4.44-2.62-6.75z"/>
	<path class="s160" d="m492 756q0.99 0.99 2 2c-0.35 3.33-1.18 6.18-3 9q-1.48 0.49-3 1 0.72-2.44 1.44-4.88 0.4-1.35 0.81-2.74c0.75-2.38 0.75-2.38 1.75-4.38z"/>
	<path class="s161" d="m581 502c0 3 0 3-1.69 5.25-2.31 1.75-2.31 1.75-5.06 1.5q-1.11-0.37-2.25-0.75c2.42-3.63 3.94-3.79 8-5q0.49-0.49 1-1z"/>
	<path class="s23" d="m593 423c3.37 1.44 5.51 3.33 8 6q-0.49 0.99-1 2-1.48 0-3 0 0-0.99 0-2-0.99 0-2 0 0-0.99 0-2-0.99-0.49-2-1 0-1.48 0-3z"/>
	<path class="s48" d="m593 417q1.48 0 3 0 0 1.48 0 3 1.97 0.49 4 1-0.49 1.97-1 4c-4.69-3.61-4.69-3.61-6-5q0-1.48 0-3z"/>
	<path class="s69" d="m610 313c3.23 3.8 5.78 7.55 8 12q-0.49 1.48-1 3-1.76-2.9-3.5-5.81-0.97-1.61-1.97-3.27c-1.53-2.92-1.53-2.92-1.53-5.92z"/>
	<path class="s162" d="m728 752q0.99 0.49 2 1c-0.63 2.38-0.63 2.38-2 5-3.13 1.31-3.13 1.31-6 2 1.44-3.37 3.33-5.51 6-8z"/>
	<path class="s163" d="m495 746c1.31 3.92 0.32 5.04-1.44 8.69q-0.7 1.48-1.43 3.01c-0.56 1.14-0.56 1.14-1.13 2.3-1.23-3.68-0.6-4.63 0.87-8.13q0.56-1.32 1.12-2.69c1.01-2.18 1.01-2.18 2.01-3.18z"/>
	<path class="s164" d="m418 692c5.01 1.47 7.52 4.28 11 8q-0.49 1.48-1 3-0.58-0.72-1.17-1.46-0.78-0.94-1.58-1.92c-0.77-0.93-0.77-0.93-1.55-1.89-1.78-1.81-3.38-2.73-5.7-3.73q0-0.99 0-2z"/>
	<path class="s165" d="m650 484q1.97 1.48 4 3-0.49 2.95-1 6-1.48-0.49-3-1c-1.13-5.75-1.13-5.75 0-8z"/>
	<path class="s166" d="m633 304q0.99 0 2 0c1.32 2.97 2.64 5.94 4 9q-0.99 0.99-2 2c-4-6.5-4-6.5-4-11z"/>
	<path class="s167" d="m576 253q0 1.97 0 4c-3.3-0.99-6.6-1.98-10-3 3.85-2.57 5.59-1.83 10-1z"/>
	<path class="s168" d="m318 746c1.62 2.57 2.04 3.68 1.63 6.75q-0.31 1.11-0.63 2.25-2.46-0.49-5-1 2-4 4-8z"/>
	<path class="s169" d="m490 731q0.99 0.99 2 2c2.11-0.32 2.11-0.32 4-1q-0.49 2.46-1 5-2.46 0-5 0 0-0.99 0-2-0.99-0.49-2-1 0.99-1.48 2-3z"/>
	<path class="s156" d="m565 695c2.96 2.81 5.44 5.18 7 9q-1.48 0-3 0-0.49-1.97-1-4-1.97 0-4 0 0.49-2.46 1-5z"/>
	<path class="s170" d="m627 392c1.5 1.19 1.5 1.19 3 3 0.19 2.69 0.19 2.69 0 5q-0.99 0-2 0-0.99 1.97-2 4c-0.14-8.57-0.14-8.57 1-12z"/>
	<path class="s171" d="m529 353c1.98 0.99 3.96 1.98 6 3q0 2.46 0 5c-2.31-1.98-4.62-3.96-7-6q0.49-0.99 1-2z"/>
	<path class="s172" d="m640 320q2.46 0 5 0c0.69 1.75 0.69 1.75 1 4-1.44 2.25-1.44 2.25-3 4-0.99-2.64-1.98-5.28-3-8z"/>
	<path class="s173" d="m232 768q0.49 0.99 1 2 1.48 0 3 0 0 0.99 0 2c-6.75 0.13-6.75 0.13-9-1q0-0.99 0-2 2.46-0.49 5-1z"/>
	<path class="s174" d="m325 759q0.49 1.97 1 4c-1.88 1.06-1.88 1.06-4 2q-0.99-0.49-2-1-0.49 0.99-1 2-0.99-0.99-2-2c3.96-2.48 3.96-2.48 8-5z"/>
	<path class="s175" d="m376 743c2.44 0.63 2.44 0.63 5 2 0.81 3.13 0.81 3.13 1 6q-1.48-1.48-3-3-0.49 1.48-1 3c-1.26-2.91-2-4.8-2-8z"/>
	<path class="s128" d="m475 722c2 3 2 3 2 6q1.48 0.49 3 1-0.49 1.97-1 4c-1.71-1.63-2.93-2.87-4-5q-0.06-3 0-6z"/>
	<path class="s176" d="m578 713c2.62 1.05 3.79 1.65 5.25 4.13q0.37 0.92 0.75 1.87-1.48 0.49-3 1c-1.32-1.65-2.64-3.3-4-5q0.49-0.99 1-2z"/>
	<path class="s177" d="m706 689c5 0.48 7.98 2.03 12 5q-0.49 0.99-1 2c-3.63-1.98-7.26-3.96-11-6q0-0.49 0-1z"/>
	<path class="s178" d="m337 677c1.88 0.13 1.88 0.13 4 1 1.25 3.06 1.25 3.06 2 6q-0.99 0.99-2 2c-4-6.75-4-6.75-4-9z"/>
	<path class="s91" d="m553 648q2.96 0.99 6 2 0.49 2.46 1 5c-2.87-1.29-4.98-2.57-7-5q0-0.99 0-2z"/>
	<path class="s179" d="m422 569c0.55 2.08 1 3.84 1 6-4.32 0.76-7.74 1.16-12 0q0-0.49 0-1 2.98-0.34 5.96-0.68c2.23-0.29 2.23-0.29 5.04-1.32q0-1.48 0-3z"/>
	<path class="s180" d="m637 563q0.49 1.48 1 3c-2.64 2.97-5.28 5.94-8 9q-0.99-0.49-2-1 0.84-0.93 1.71-1.9c1.11-1.22 1.11-1.22 2.23-2.48q1.09-1.21 2.21-2.46c1.88-2.02 1.88-2.02 2.85-4.16z"/>
	<path class="s78" d="m645 549c1.19 1.63 1.19 1.63 2 4-1.38 3.25-1.38 3.25-3 6-1.19-1.63-1.19-1.63-2-4 1.38-3.25 1.38-3.25 3-6z"/>
	<path class="s181" d="m536 549c-1.49 3.8-3.76 5.61-7 8q0.28-0.92 0.56-1.88c0.68-2.16 0.68-2.16-0.56-4.12 3-2 3-2 7-2z"/>
	<path class="s182" d="m622 542q0.99 0 2 0c-1.26 4.51-2.9 7.49-6 11q-0.99-0.49-2-1 1.43-2.51 2.88-5 0.79-1.39 1.61-2.81 0.74-1.08 1.51-2.19z"/>
	<path class="s140" d="m607 472q0.99 1.48 2 3c-2.97 2.48-2.97 2.48-6 5q-0.49-1.48-1-3c1.38-1.5 1.38-1.5 3-3q0.99 0 2 0 0-0.99 0-2z"/>
	<path class="s82" d="m579 408q3.06 2.43 6 5 0 0.99 0 2c-2.94-0.81-2.94-0.81-6-2q-0.49-1.48-1-3 0.49-0.99 1-2z"/>
	<path class="s183" d="m617 281q1.97 0.49 4 1 0.22 1.17 0.44 2.38c0.44 2.58 0.44 2.58 1.56 4.62q-1.48 0.49-3 1c-0.99-2.97-1.98-5.94-3-9z"/>
	<path class="s184" d="m671 770c3.82 0.53 6.06 1.5 9 4-2.25 0.75-2.25 0.75-5 1-2.31-1.88-2.31-1.88-4-4q0-0.49 0-1z"/>
	<path class="s28" d="m480 767c1.98 0.5 1.98 0.5 4 1q-0.49 2.46-1 5-1.97 0-4 0 0.49-2.96 1-6z"/>
	<path class="s185" d="m479 764q0.99 0.49 2 1c-0.66 2.64-1.32 5.28-2 8q-1.48-1.48-3-3c1-3 1-3 3-6z"/>
	<path class="s178" d="m594 733c4 1.33 4.84 3.5 7 7-0.99 0.5-0.99 0.5-2 1q-1.48-0.99-3-2 0-1.48 0-3-0.99 0-2 0 0-1.48 0-3z"/>
	<path class="s141" d="m377 734q1.48 0 3 0c2.13 4.63 2.13 4.63 1 8q-0.99 0-2 0c-0.66-2.64-1.32-5.28-2-8z"/>
	<path class="s186" d="m506 697q0.99 0.49 2 1c0 2.64 0 5.28 0 8q-1.97-0.49-4-1c0.52-2.76 1.11-5.33 2-8z"/>
	<path class="s187" d="m591 697c3.15 2.38 6 4.55 8 8q-0.49 1.48-1 3-1.76-2.18-3.5-4.38c-0.97-1.21-0.97-1.21-1.97-2.46-1.53-2.16-1.53-2.16-1.53-4.16z"/>
	<path class="s129" d="m758 684q0 1.48 0 3-5 2-10 4c2.88-4.21 5.04-5.76 10-7z"/>
	<path class="s121" d="m536 664c1.88 0.25 1.88 0.25 4 1 1.25 2.06 1.25 2.06 2 4q-0.99 0-2 0-0.49 1.48-1 3 0-1.97 0-4-0.99 0-2 0-0.49-1.97-1-4z"/>
	<path class="s188" d="m627 575q0.99 0.49 2 1c0 2 0 2-1.94 4q-1.01 0.99-2.06 2-0.49 0.99-1 2-0.99-1.97-2-4c1.65-1.65 3.3-3.3 5-5z"/>
	<path class="s189" d="m607 562c-4.31 3.94-4.31 3.94-7.81 4.25q-1.08-0.12-2.19-0.25 0-0.99 0-2c6.63-3.13 6.63-3.13 10-2z"/>
	<path class="s190" d="m525 345q0.99 1.97 2 4-1.48 0.99-3 2c-1.32-1.65-2.64-3.3-4-5 2-1 2-1 5-1z"/>
	<path class="s70" d="m461 323c-2.51 2.51-4.63 3.88-8 5q-0.99-0.49-2-1 0-0.99 0-2c3.51-1.6 6.14-2.22 10-2z"/>
	<path class="s70" d="m394 284q0.99 0.49 2 1 0 0.49 0 1 0.99 0.49 2 1c-2.97 2.48-2.97 2.48-6 5q-0.99-0.49-2-1 0.99-1.48 2-3 1.03-1.99 2-4z"/>
	<path class="s191" d="m365 280q0.99 0 2 0c-0.54 3.8-2.2 5.47-5 8q-0.49-1.48-1-3 0.49-0.99 1-2 0.99 0 2 0 0.49-1.48 1-3z"/>
	<path class="s192" d="m366 755q0.83 1.05 1.69 2.13 3.61 4.47 7.31 8.87c-2.46-0.39-3.72-0.71-5.48-2.52q-0.63-0.92-1.27-1.85-0.64-0.91-1.3-1.84c-0.95-1.79-0.95-1.79-0.95-4.79z"/>
	<path class="s39" d="m793 760c2.97 0.5 2.97 0.5 6 1q-0.49 2.46-1 5-1.48 0-3 0 0-1.97 0-4-0.99-0.99-2-2z"/>
	<path class="s193" d="m435 753q1.48 0 3 0c-0.19 2.38-0.19 2.38-1 5-2.56 1.31-2.56 1.31-5 2 1.88-4.75 1.88-4.75 3-7z"/>
	<path class="s194" d="m322 737q0.99 0 2 0-0.39 2.19-0.81 4.38-0.23 1.21-0.46 2.46c-0.73 2.16-0.73 2.16-3.73 4.16 0.67-3.81 1.73-7.35 3-11z"/>
	<path class="s195" d="m460 732q0.99 0.99 2 2c-0.38 3.13-0.38 3.13-1 6q-1.97-0.49-4-1 0-0.99 0-2 0.99 0 2 0 0.49-2.46 1-5z"/>
	<path class="s196" d="m453 716c2.46 2.46 3 4.71 4 8q-2.46-0.49-5-1c0.33-2.31 0.66-4.62 1-7z"/>
	<path class="s197" d="m665 702q0.99 0.99 2 2c-0.38 3.63-0.38 3.63-1 7q-1.97 0.49-4 1 0.46-1.08 0.94-2.19c0.99-2.61 1.59-5.06 2.06-7.81z"/>
	<path class="s198" d="m230 657c4.68 1.48 4.68 1.48 6.31 4.13q0.34 0.92 0.69 1.87-1.48 0.49-3 1c-1.98-3.47-1.98-3.47-4-7z"/>
	<path class="s79" d="m431 343q0.49 0.99 1 2c-1 1.95-1 1.95-2.44 4.13q-0.7 1.08-1.43 2.19-0.56 0.83-1.13 1.68-0.99-1.97-2-4 0.99-0.99 2-2 0.49 0.49 1 1 1.48-2.46 3-5z"/>
	<path class="s130" d="m381 769c2.31 0.66 4.62 1.32 7 2q-0.49 1.48-1 3c-4.75-0.75-4.75-0.75-7-3q0.49-0.99 1-2z"/>
	<path class="s199" d="m610 753c3.74 1.25 4.19 2.63 6 6q-1.48 0.49-3 1c-1.32-1.65-2.64-3.3-4-5q0.49-0.99 1-2z"/>
	<path class="s200" d="m604 744c1.65 1.65 3.3 3.3 5 5q-0.49 0.99-1 2c-3.69-1.23-4.72-2.94-7-6q1.48-0.49 3-1z"/>
	<path class="s201" d="m659 712c2.14 2.14 2.43 3.13 3 6q-1.48 0.99-3 2-0.99-0.49-2-1c0.66-2.31 1.32-4.62 2-7z"/>
	<path class="s202" d="m748 691c-1.65 1.32-3.3 2.64-5 4q-0.49-0.99-1-2-2.96 0.49-6 1c4.42-2.95 6.68-3.1 12-3z"/>
	<path class="s203" d="m464 691c3.3 0 6.6 0 10 0q-1.97 1.48-4 3-0.99 0.99-2 2-0.43-0.95-0.88-1.94c-0.95-2.21-0.95-2.21-3.12-3.06z"/>
	<path class="s204" d="m563 663c4.21 1.5 5.74 4.29 8 8-0.99 0.5-0.99 0.5-2 1-2.69-2.69-4.36-5.61-6-9z"/>
	<path class="s205" d="m558 655q0.99 0.99 2 2c-0.38 2.13-0.38 2.13-1 4q-1.48 0-3 0-0.49-1.48-1-3 1.48-1.48 3-3z"/>
	<path class="s206" d="m303 652q2.46 0.49 5 1 0 0.99 0 2 0.99 0 2 0 0 0.99 0 2c-2.64-0.66-5.28-1.32-8-2q0.49-1.48 1-3z"/>
	<path class="s140" d="m384 585c7.57 1.86 7.57 1.86 10 5q-1.48 0.99-3 2-3.5-3.5-7-7z"/>
	<path class="s207" d="m526 560q0.49 1.97 1 4c-1.81 1.56-1.81 1.56-4 3q-1.48-0.49-3-1c1.98-1.98 3.96-3.96 6-6z"/>
	<path class="s118" d="m549 537q1.48 0.49 3 1c-0.99 1.49-0.99 1.49-2 3q-0.99 0-2 0 0 0.99 0 2-1.97-0.49-4-1c1.65-1.65 3.3-3.3 5-5z"/>
	<path class="s208" d="m557 496q0.99 1.97 2 4c-1.81 1.06-1.81 1.06-4 2q-1.48-0.49-3-1c1.65-1.65 3.3-3.3 5-5z"/>
	<path class="s126" d="m582 496q0.99 0.49 2 1c0 2.43-0.5 4.63-1 7-2-3-2-3-2-5q-0.99 0-2 0 0-0.99 0-2 1.48-0.49 3-1z"/>
	<path class="s209" d="m635 443q0.99 1.48 2 3c-1.05 2.62-1.65 3.79-4.13 5.25q-0.92 0.37-1.87 0.75c1.06-3.4 2.01-6.01 4-9z"/>
	<path class="s210" d="m553 383c2.62 1.05 3.79 1.65 5.25 4.13q0.37 0.92 0.75 1.87c-3 0-3 0-5-1-0.63-2.56-0.63-2.56-1-5z"/>
	<path class="s26" d="m522 376c2.62 1.05 3.79 1.65 5.25 4.13q0.37 0.92 0.75 1.87c-0.99 0.5-0.99 0.5-2 1q0-0.99 0-2-1.48-0.49-3-1 0-0.99 0-2-0.99-0.49-2-1 0.49-0.49 1-1z"/>
	<path class="s211" d="m359 290q0.49 1.48 1 3c-1.94 3.19-1.94 3.19-4 6q-0.99-0.99-2-2c1.25-3.65 1.67-4.78 5-7z"/>
	<path class="s212" d="m389 263q0.99 0.49 2 1c-3.2 2.65-6.39 4.94-10 7 1.5-4.21 4.29-5.74 8-8z"/>
	<path class="s213" d="m309 770c-1.06 1.56-1.06 1.56-3 3-3.69-0.31-3.69-0.31-7-1q0-0.49 0-1c6.63-2.13 6.63-2.13 10-1z"/>
	<path class="s214" d="m769 759c4.46 2.97 4.46 2.97 9 6-3 1-3 1-5.63-0.19-2.37-1.81-2.37-1.81-3.37-5.81z"/>
	<path class="s56" d="m333 755q-0.49 1.97-1 4-2.46 0.49-5 1 0-1.48 0-3c3-2 3-2 6-2z"/>
	<path class="s167" d="m727 752c-1.05 2.62-1.65 3.79-4.13 5.25q-0.92 0.37-1.87 0.75 0-1.48 0-3c3.33-3 3.33-3 6-3z"/>
	<path class="s146" d="m497 737q0.49 1.48 1 3c-1.44 2.19-1.44 2.19-3 4q-1.48-0.49-3-1 0.99-1.97 2-4 0.49 0.49 1 1 0.99-1.48 2-3z"/>
	<path class="s215" d="m607 714c2.97 0.5 2.97 0.5 6 1q-0.99 2.46-2 5-2.06-1.94-4-4 0-0.99 0-2z"/>
	<path class="s82" d="m372 712q1.97 0 4 0c0.69 2.31 0.69 2.31 1 5-1.44 1.81-1.44 1.81-3 3-0.66-2.64-1.32-5.28-2-8z"/>
	<path class="s216" d="m470 695c-0.33 3.3-0.66 6.6-1 10q-0.49 0-1 0 0-2.96 0-6-0.99 0-2 0 0.49-1.48 1-3c2-1 2-1 3-1z"/>
	<path class="s217" d="m392 691q0 1.48 0 3-1.97 0.49-4 1 0-0.99 0-2-2.46 0.49-5 1c1.86-3.71 5.31-3.1 9-3z"/>
	<path class="s59" d="m694.19 691.88c1.88 0.06 1.88 0.06 3.81 0.12q-1.97 0.49-4 1 0 0.99 0 2c-2.31-0.33-4.62-0.66-7-1 3.09-2.06 3.71-2.24 7.19-2.12z"/>
	<path class="s218" d="m751 685q1.48 0.49 3 1c-6.14 5.57-6.14 5.57-11 6 4.96-5.14 4.96-5.14 8-7z"/>
	<path class="s219" d="m308 659q-0.49 1.48-1 3c-2.94-0.38-2.94-0.38-6-1q-0.49-0.99-1-2c3.29-1.1 4.71-0.8 8 0z"/>
	<path class="s146" d="m366 566q1.48 0.99 3 2 1.48 0.49 3 1-0.99 0-2 0-0.49 0.99-1 2-1.48 0-3 0 0-0.99 0-2-0.99 0-2 0c1-2 1-2 2-3z"/>
	<path class="s220" d="m639 558q0.49 0.99 1 2c-1.98 2.64-3.96 5.28-6 8q-0.49-0.99-1-2c1.98-2.64 3.96-5.28 6-8z"/>
	<path class="s221" d="m513 537q0.99 0 2 0c-0.4 2.89-0.79 3.82-3.06 5.75q-0.96 0.62-1.94 1.25-0.49-0.99-1-2 0.49-0.99 1-2 0.99 0 2 0 0.49-1.48 1-3z"/>
	<path class="s55" d="m577 432q1.97 1.97 4 4 0.99-0.49 2-1 0.49 1.97 1 4c-3 0-3 0-4.39-1.31q-1.8-2.35-3.61-4.69 0.49-0.49 1-1z"/>
	<path class="s222" d="m569 424c2 1 2 1 4 4q0.99-0.49 2-1 0.49 1.48 1 3-0.99 0.99-2 2c-1.98-2.31-3.96-4.62-6-7q0.49-0.49 1-1z"/>
	<path class="s223" d="m625 405q0.49 0 1 0c0.37 6.57 0.37 6.57-1.51 8.73q-0.73 0.63-1.49 1.27 0.21-2.22 0.44-4.44 0.12-1.23 0.24-2.49c0.32-2.07 0.32-2.07 1.32-3.07z"/>
	<path class="s186" d="m544 370c4 0 4 0 5.81 1.25q0.59 0.86 1.19 1.75-0.49 1.97-1 4c-1.98-2.31-3.96-4.62-6-7z"/>
	<path class="s140" d="m458.75 343.69q1.6 0.15 3.25 0.31c-2.74 2.74-5.55 4.21-9 6q-0.99-0.49-2-1c2.38-3.81 3.13-4.93 7.75-5.31z"/>
	<path class="s224" d="m625 298c3.81 1.44 5.27 3.35 7 7q-0.49 0.99-1 2-1.5-1.97-3-3.94-0.83-1.09-1.69-2.21c-1.31-1.85-1.31-1.85-1.31-2.85z"/>
	<path class="s225" d="m422 768c0 3 0 3-2 6-3.13 0.19-3.13 0.19-6 0q4-3 8-6z"/>
	<path class="s226" d="m386 752c2.44 0.81 2.44 0.81 5 2q0.49 1.48 1 3-1.97 0-4 0-0.99-0.99-2-2 0-1.48 0-3z"/>
	<path class="s129" d="m461 721c1.62 2.57 2.04 3.68 1.63 6.75q-0.31 1.11-0.63 2.25c-1.56-1.81-1.56-1.81-3-4 1-3 1-3 2-5z"/>
	<path class="s226" d="m712 708q0.49 0 1 0c0 2.97 0 5.94 0 9q-0.49-0.99-1-2c-2.02-0.65-2.02-0.65-4-1q0.99 0 2 0 0.99-2.96 2-6z"/>
	<path class="s227" d="m664 704c1 3 1 3 0.22 4.82q-1.61 2.59-3.22 5.18c-0.75-1.63-0.75-1.63-1-4 1.94-3.25 1.94-3.25 4-6z"/>
	<path class="s223" d="m370 702c1.98 0.5 1.98 0.5 4 1q-0.49 1.97-1 4-0.99 0-2 0 0-0.99 0-2-0.99 0-2 0 0.49-1.48 1-3zm0 5q0.49 0.99 1 2-0.99-0.49-2-1 0.49-0.49 1-1z"/>
	<path class="s228" d="m587 688q1.48 0.49 3 1 0 1.48 0 3 0.99 0 2 0-0.49 1.48-1 3c-2-1.81-2-1.81-4-4q0-1.48 0-3z"/>
	<path class="s229" d="m298 650q0 1.48 0 3c-3.3-0.33-6.6-0.66-10-1 3.99-2 5.7-2.2 10-2z"/>
	<path class="s230" d="m377 584c2.92 1.07 4.78 1.78 7 4q-2.46 0.49-5 1 0-0.99 0-2-0.99 0-2 0 0-1.48 0-3z"/>
	<path class="s231" d="m578 439c3.37 1.39 4.99 2.98 7 6-2.38-0.19-2.38-0.19-5-1-1.31-2.56-1.31-2.56-2-5z"/>
	<path class="s139" d="m546 401q3.06 2.43 6 5 0 0.99 0 2-1.48 0.49-3 1c-1.08-2.65-2.09-5.28-3-8z"/>
	<path class="s48" d="m516 376c2.13 0.94 2.13 0.94 4 2q0 1.48 0 3c-0.99 0.5-0.99 0.5-2 1-1.32-1.65-2.64-3.3-4-5q0.99-0.49 2-1z"/>
	<path class="s73" d="m539 368q3.06 2.43 6 5 0 0.99 0 2-2.96-0.99-6-2 0-2.46 0-5z"/>
	<path class="s143" d="m422 363c1.11 3.33 0.84 5.62 0 9q-1.48-0.99-3-2c0.61-2.96 1.25-4.38 3-7z"/>
	<path class="s232" d="m508.56 359.94c1.21 0.03 1.21 0.03 2.44 0.06q0 2.5 0 5-1.97-0.49-4-1 0-0.99 0-2-0.99-0.49-2-1c1-1 1-1 3.56-1.06z"/>
	<path class="s40" d="m629 343q0.49 0 1 0 0 2.46 0 5 0.99 0.49 2 1c-0.99 1.49-0.99 1.49-2 3-1.56-2.31-1.56-2.31-3-5 1-3 1-3 2-4z"/>
	<path class="s233" d="m569 281c2.87 0.57 3.86 0.86 6 3q0 0.99 0 2-1.48 0-3 0 0-0.99 0-2-1.48 0-3 0 0-1.48 0-3z"/>
	<path class="s45" d="m536 267q0.99 0 2 0 0 0.99 0 2c2.97 0.5 2.97 0.5 6 1q0 0.49 0 1c-2.64 0-5.28 0-8 0q0-1.97 0-4z"/>
	<path class="s234" d="m533 249c2.97 0 5.94 0 9 0q0 0.99 0 2-2.46 0-5 0-0.49 0.99-1 2-1.48-1.97-3-4z"/>
	<path class="s235" d="m291 767q1.48 0.49 3 1 0 1.48 0 3 0.99 0.99 2 2-2.46-0.49-5-1 0-2.46 0-5z"/>
	<path class="s236" d="m790 762q0.99 0.49 2 1 0.49 1.48 1 3-2.96 0.49-6 1 0-1.48 0-3 1.48-0.99 3-2z"/>
	<path class="s237" d="m468 753q0.99 0 2 0 0.99 2.96 2 6c-0.99 0.5-0.99 0.5-2 1q-0.99-0.49-2-1 0-2.96 0-6z"/>
	<path class="s238" d="m682 753c2.48 0.99 2.48 0.99 5 2q0 1.97 0 4-2.56-1.92-5-4 0-0.99 0-2z"/>
	<path class="s239" d="m616 728c5.57 5.14 5.57 5.14 6 9q-0.49-0.99-1-2-0.99 0-2 0c-3-4.38-3-4.38-3-7z"/>
	<path class="s240" d="m502 718q0.49 0.99 1 2 0.99 0 2 0c-0.38 2.44-0.38 2.44-1 5-0.99 0.5-0.99 0.5-2 1-1.13-5.75-1.13-5.75 0-8z"/>
	<path class="s241" d="m660 704q0.99 0.49 2 1c-0.75 4.75-0.75 4.75-3 7-0.63-2.31-0.63-2.31-1-5q0.99-1.48 2-3z"/>
	<path class="s242" d="m409 696c1.94 0.81 1.94 0.81 4 2q0.49 1.48 1 3-0.99 0.99-2 2 0-0.99 0-2-0.99 0-2 0-0.49-2.46-1-5z"/>
	<path class="s128" d="m371 696q0.99 0.49 2 1c-1.29 2.88-2.66 4.87-5 7 0.75-5.75 0.75-5.75 3-8z"/>
	<path class="s243" d="m497 690c2.97 0.5 2.97 0.5 6 1q0.49 1.48 1 3c-2.31 0-4.62 0-7 0q0-1.97 0-4z"/>
	<path class="s244" d="m561 688q0.99 0 2 0c2.19 2.31 2.19 2.31 4 5q-0.49 1.48-1 3c-5-5.75-5-5.75-5-8z"/>
	<path class="s145" d="m491 561q1.97 0.99 4 2c-2.31 2.06-2.31 2.06-5 4q-1.48-0.49-3-1 0.71-0.68 1.44-1.38c1.65-1.55 1.65-1.55 2.56-3.62z"/>
	<path class="s245" d="m612 554q0.49 1.48 1 3-1.97 1.48-4 3-0.49-1.48-1-3c1-2 1-2 4-3z"/>
	<path class="s246" d="m650 534c2 4 2 4 1.81 6.19-0.4 0.89-0.4 0.89-0.81 1.81q-1.48 0.49-3 1c0.66-2.97 1.32-5.94 2-9z"/>
	<path class="s36" d="m636 435q0.99 1.48 2 3c-0.81 1.94-0.81 1.94-2 4q-1.48 0.49-3 1c1.88-5.75 1.88-5.75 3-8z"/>
	<path class="s247" d="m601 431c3.37 1.39 4.99 2.98 7 6-5.75-1.75-5.75-1.75-8-4q0.49-0.99 1-2z"/>
	<path class="s248" d="m622 413c2 3 2 3 1.63 6.19q-0.31 1.38-0.63 2.81-1.48-0.99-3-2c0.66-2.31 1.32-4.62 2-7z"/>
	<path class="s249" d="m373 317q1.48 0 3 0c-0.25 2.38-0.25 2.38-1 5-2.06 1.31-2.06 1.31-4 2 0.66-2.31 1.32-4.62 2-7z"/>
	<path class="s55" d="m368 313q1.97 0.49 4 1 0.49 2.95 1 6-1.48 0-3 0c-0.66-2.31-1.32-4.62-2-7z"/>
	<path class="s61" d="m372 310q1.97 0 4 0-0.9 3.53-2 7c-0.99 0.5-0.99 0.5-2 1 0-2.64 0-5.28 0-8z"/>
	<path class="s250" d="m385 289c1.98 0.99 1.98 0.99 4 2q-0.49 2.46-1 5-0.99 0-2 0c-0.33-2.31-0.66-4.62-1-7z"/>
	<path class="s226" d="m404 282q0.99 0.49 2 1 0 1.48 0 3c-1.88 0.63-1.88 0.63-4 1q-0.99-0.99-2-2 1.97-1.48 4-3z"/>
	<path class="s251" d="m373 273q1.48 0.49 3 1c-2.97 2.48-2.97 2.48-6 5q-0.49-0.99-1-2 1.97-1.97 4-4z"/>
</svg>